<svg width="192" height="244" viewBox="0 0 192 244" fill="none" xmlns="http://www.w3.org/2000/svg">
<g opacity="0.08">
<path d="M167.397 226.768C160.148 225.123 159.283 218.969 158.185 211.169C156.949 202.462 155.425 191.628 144.331 182.989C138.77 178.669 133.443 175.961 128.033 174.709C123.2 173.595 118.395 173.664 113.369 174.932C104.033 177.298 95.2183 183.606 86.6782 189.691C78.6872 195.399 70.4217 201.313 61.5246 204.227C56.7465 205.804 52.1881 206.387 47.5886 206.044C42.426 205.65 37.3459 204.09 32.0735 201.262C22.8606 196.325 13.7026 194.611 4.86046 196.153C3.22658 196.445 1.60642 196.839 0 197.353V197.885C1.63388 197.37 3.26777 196.959 4.92911 196.668C13.7026 195.125 22.7782 196.839 31.9225 201.724C38.4168 205.204 44.4306 206.644 50.1012 206.644C63.7901 206.644 75.4744 198.296 86.8841 190.154C95.7812 183.794 104.17 177.795 113.452 175.446C118.422 174.178 123.173 174.109 127.951 175.224C133.319 176.458 138.605 179.149 144.111 183.434C148.985 187.223 155.054 191.937 157.786 211.255C158.349 215.283 158.844 218.763 160.148 221.557C161.59 224.66 163.883 226.477 167.329 227.265C177.53 229.597 183.599 233.282 186.414 238.87C187.086 240.19 187.581 241.63 187.91 243.156H188.336C187.993 241.527 187.485 240.019 186.757 238.596C183.874 232.888 177.723 229.134 167.397 226.768Z" fill="#3B82F6"/>
<path d="M159.43 232.454C150.794 230.852 149.984 227.631 148.226 220.61C146.688 214.492 144.368 205.221 135.293 191.775C123.087 173.677 110.14 184.993 95.147 198.098C79.9482 211.39 62.7174 226.438 41.6835 215.599C33.6241 211.441 25.4961 209.396 17.5054 209.482C11.5604 209.55 5.67038 210.811 0 213.231V213.776C5.67038 211.339 11.5467 210.078 17.5054 210.01C25.4412 209.908 33.5143 211.97 41.5187 216.094C50.9922 220.985 60.5618 221.07 70.7493 216.383C79.6599 212.276 87.6506 205.289 95.3804 198.541C102.795 192.065 109.797 185.947 116.346 183.766C123.581 181.346 129.499 184.004 134.977 192.133C143.997 205.511 146.304 214.713 147.828 220.797C149.585 227.818 150.478 231.346 159.375 232.999C164.578 233.97 167.832 236.356 169.054 240.088C169.356 241.026 169.535 242.048 169.603 243.156H170.015C169.96 241.98 169.768 240.889 169.439 239.901C168.148 235.947 164.784 233.459 159.43 232.454Z" fill="#3B82F6"/>
<path d="M116.842 209.995C113.033 206.821 107.922 206.924 101.66 210.356C96.6866 213.066 90.9729 217.87 84.6701 224.596C78.2302 231.493 72.4754 239.042 68.8855 244H69.4336C73.0235 239.042 78.6412 231.699 84.9304 224.973C91.2059 218.265 96.8784 213.495 101.811 210.802C107.936 207.456 112.91 207.319 116.595 210.407C125.159 217.562 129.708 229.64 133.723 240.294C134.202 241.547 134.654 242.782 135.12 243.983H135.573C135.079 242.713 134.586 241.409 134.093 240.071C130.078 229.365 125.502 217.218 116.842 209.995Z" fill="#3B82F6"/>
<path d="M105.917 227.422C104.161 225.852 101.892 225.886 99.1779 227.525C97.0442 228.822 94.6268 231.108 91.9933 234.333C89.4814 237.422 87.226 240.784 85.7405 243.156H86.2672C90.4807 236.518 100.137 222.883 105.674 227.832C109.253 231.04 111.346 237.405 113.156 243.156H113.588C111.751 237.303 109.644 230.75 105.917 227.422Z" fill="#3B82F6"/>
<path d="M37.9592 227.207C34.4463 226.098 30.8103 224.955 27.5433 223.594C19.4375 220.183 10.0468 223.056 3.59499 226.065C2.32376 226.653 1.12087 227.275 0 227.896V228.451C1.16188 227.812 2.41944 227.157 3.74535 226.535C10.1288 223.561 19.4239 220.721 27.4066 224.082C30.6736 225.46 34.3232 226.602 37.8499 227.712C45.778 230.199 53.2687 232.552 53.7881 236.82C54.0068 238.618 52.9953 240.719 50.7262 243.156H51.3276C53.4737 240.719 54.4169 238.601 54.1982 236.736C53.6377 232.131 46.3794 229.863 37.9592 227.207Z" fill="#3B82F6"/>
<path d="M33.2101 234.287C30.468 233.696 27.1303 233.731 24.0558 234.392C18.3639 235.609 7.22922 239.504 0 242.13V242.669C7.22922 240.043 18.4331 236.131 24.1389 234.896C27.1719 234.253 30.4541 234.2 33.1547 234.792C37.0601 235.644 38.4312 237.435 38.9021 238.808C39.3314 240.043 39.2206 241.504 38.5835 243.156H39.0544C39.6638 241.452 39.733 239.921 39.276 238.6C38.3481 235.922 35.4675 234.774 33.2101 234.287Z" fill="#3B82F6"/>
<path d="M17.5646 139.348C23.75 144.585 27.7869 152.097 31.3311 158.729C35.3543 166.24 38.8438 172.735 44.2902 173.786C44.7965 173.889 45.3165 173.924 45.8365 173.924C50.0377 173.924 55.0324 170.875 61.3683 164.449C66.1168 159.625 70.0716 155.249 73.5611 151.373C80.9233 143.19 86.2465 137.281 92.1308 135.369C98.1382 133.405 104.734 135.472 114.888 142.484C123.181 148.22 133.074 152.165 142.01 153.302C146.17 153.837 149.947 153.733 152.944 152.975C156.105 152.183 158.322 150.753 159.513 148.703C161.141 145.895 161.538 140.675 154.135 131.734C145.281 121.035 135.209 119.743 124.549 118.382C117.488 117.486 110.18 116.539 102.805 112.8C94.4571 108.58 87.2181 101.241 80.6633 90.4045C75.819 82.3937 70.1674 78.6036 64.2968 79.4478C60.3009 80.0163 56.3735 82.6694 52.624 87.3036C48.8608 91.9895 45.4671 98.4498 42.566 106.512C40.4039 112.49 38.0228 115.557 35.2448 115.867C29.2374 116.539 22.2857 103.825 15.5804 91.5243C12.2277 85.3741 8.76558 79.0343 5.46764 74.4863C3.7571 72.1261 2.19708 70.3861 0.732849 69.2318V69.8693C5.34448 73.6938 10.353 82.8589 15.2383 91.8172C18.6046 97.9847 22.0942 104.376 25.4468 109.028C29.0321 113.989 32.0974 116.418 34.7933 116.418C34.9575 116.418 35.1217 116.401 35.2859 116.384C38.2144 116.056 40.7186 112.904 42.9355 106.736C45.8229 98.7255 49.1755 92.3168 52.9114 87.6826C56.5925 83.1173 60.4378 80.5159 64.3378 79.9646C70.0442 79.1549 75.5864 82.8761 80.3349 90.7319C86.9307 101.654 94.2382 109.028 102.64 113.283C110.071 117.056 117.406 117.986 124.494 118.899C135.086 120.26 145.089 121.535 153.847 132.113C161.045 140.812 160.717 145.774 159.184 148.41C156.94 152.252 150.536 153.888 142.051 152.803C133.17 151.666 123.331 147.738 115.079 142.036C104.83 134.955 98.1519 132.888 92.0213 134.886C86.0412 136.833 80.6907 142.776 73.2874 151.011C69.7979 154.887 65.8568 159.263 61.1083 164.07C54.0745 171.202 48.7513 174.131 44.345 173.286C39.0765 172.287 35.6417 165.879 31.6595 158.454C28.0879 151.786 24.0373 144.241 17.7836 138.935C12.5972 134.542 7.65714 132.336 3.04551 132.336C2.2655 132.336 1.49917 132.405 0.732849 132.526V133.043C5.91923 132.164 11.5709 134.283 17.5646 139.348Z" fill="#3B82F6"/>
<path d="M7.71325 189.743C14.0791 189.864 21.2011 191.476 27.4845 192.881C36.4901 194.909 43.5847 196.504 44.4646 192.829C45.7845 187.316 41.4948 182.756 34.3728 175.215C29.2719 169.806 22.906 163.08 16.1002 153.406C10.9855 146.142 5.88462 142.849 0.962438 143.646C0.659957 143.698 0.343728 143.767 0 143.854V144.392C0.329979 144.305 0.673707 144.218 1.01743 144.166C5.80213 143.403 10.7656 146.628 15.7977 153.753C22.631 163.461 28.9969 170.205 34.1116 175.631C41.0961 183.034 45.3171 187.506 44.0797 192.69C43.3097 195.914 36.0089 194.267 27.567 192.378C18.4513 190.332 7.7545 187.922 0.0137491 190.003V190.54C2.18611 189.951 4.75719 189.673 7.71325 189.743Z" fill="#3B82F6"/>
<path d="M26.1443 187.433C29.7562 187.433 31.7844 186.607 32.1733 184.939C33.0346 181.305 25.8526 174.756 21.4767 171.175C15.2948 166.101 7.9322 161.325 3.97305 159.798C2.65333 159.288 1.31972 158.937 0.0138918 158.727V159.253C1.27804 159.464 2.56998 159.815 3.84802 160.307C7.77939 161.817 15.1004 166.557 21.2405 171.614C28.3948 177.495 32.3262 182.411 31.7566 184.781C31.2009 187.099 26.2555 187.52 17.8231 185.975C10.9884 184.729 3.86191 182.569 0 181.2V181.744C3.8897 183.131 10.9745 185.255 17.7537 186.502C21.1572 187.116 23.9355 187.433 26.1443 187.433Z" fill="#3B82F6"/>
<path d="M8.19273 177.301C9.85062 177.301 10.7763 176.896 10.9559 176.086C11.3427 174.465 8.57957 171.77 6.18945 169.797C4.1309 168.088 1.78223 166.467 0 165.481V166.062C1.74078 167.049 3.99275 168.617 5.9684 170.255C9.03549 172.791 10.7901 174.976 10.5552 175.945C10.1822 177.512 4.64209 176.632 0 175.31V175.839C1.39539 176.226 2.95657 176.614 4.4763 176.896C5.98221 177.16 7.21181 177.301 8.19273 177.301Z" fill="#3B82F6"/>
<path fill-rule="evenodd" clip-rule="evenodd" d="M47.3787 163.792C46.9829 163.792 46.6008 163.741 46.2323 163.62C42.8884 162.567 40.227 159.582 38.5346 154.975C36.8286 150.281 36.2554 144.225 36.8968 137.443C37.4837 131.335 39.1897 125.278 41.8648 119.929C51.3777 100.862 59.2801 90.4051 65.3536 88.8521C67.3053 88.3517 69.0932 88.7831 70.6355 90.1462C76.4195 95.2259 80.1924 100.171 83.5198 104.532L83.6423 104.693L83.6721 104.732C88.8171 111.477 92.8858 116.812 101.795 119.895C107.431 121.844 110.093 123.639 109.915 125.399C109.779 126.762 107.868 127.849 104.224 128.643C100.689 129.402 95.5846 129.868 89.4702 129.972C84.857 130.058 80.0665 132.319 74.8119 136.926C70.226 140.963 65.8859 146.226 62.0507 150.885C56.3866 157.77 51.4323 163.792 47.3787 163.792ZM42.2196 120.205C39.5855 125.485 37.8931 131.473 37.3199 137.512C36.6921 144.19 37.2517 150.143 38.9304 154.751C40.5546 159.22 43.1204 162.119 46.3414 163.119C46.6826 163.223 47.0375 163.275 47.3924 163.275C51.2684 163.275 56.1679 157.322 61.7635 150.524L61.764 150.523C65.5992 145.847 69.953 140.567 74.5798 136.512C79.9027 131.853 84.7751 129.54 89.4701 129.454C95.5709 129.351 100.648 128.885 104.156 128.125C108.673 127.142 109.451 125.951 109.52 125.33C109.711 123.363 104.115 121.206 101.699 120.378C92.6639 117.237 88.5557 111.854 83.3693 105.038L83.3132 104.964C79.9831 100.599 76.2123 95.6565 70.4171 90.5603C69.3525 89.6286 68.1788 89.1627 66.8958 89.1627C66.4318 89.1627 65.9404 89.2317 65.4491 89.3525C59.4984 90.8882 51.6779 101.259 42.2196 120.205Z" fill="#3B82F6"/>
<path fill-rule="evenodd" clip-rule="evenodd" d="M144.463 145.102C138.063 143.935 130.762 141.997 126.449 140.676C119.257 138.48 116.173 136.524 115.818 133.968C115.504 131.652 117.497 128.856 122.069 125.168C124.566 123.161 127.814 122.732 131.758 123.933C134.883 124.876 138.445 126.832 142.348 129.748C148.844 134.603 154.153 140.538 154.412 140.83C156.323 142.528 157.087 143.798 156.746 144.741C156.418 145.616 155.108 146.062 152.761 146.062C150.755 146.062 147.998 145.736 144.463 145.102ZM127.664 123.761C125.589 123.761 123.802 124.379 122.301 125.58C117.947 129.096 115.955 131.807 116.228 133.831C116.61 136.73 121.659 138.651 126.545 140.144C138.39 143.764 155.354 147.297 156.363 144.501C156.5 144.124 156.404 143.197 154.166 141.207L154.153 141.19C154.15 141.187 154.129 141.165 154.091 141.123C153.477 140.446 148.356 134.8 142.143 130.16C138.281 127.278 134.76 125.339 131.676 124.413C130.243 123.984 128.906 123.761 127.664 123.761Z" fill="#3B82F6"/>
<path d="M192 136.015C191.024 134.736 189.91 133.423 188.645 132.11C183.831 127.117 177.726 123.005 170.492 119.878C161.458 115.973 150.635 113.589 138.327 112.794C131.286 112.345 117.782 110.773 106.382 105.261C94.3768 99.4733 87.721 90.921 86.6208 79.8463C85.3419 67.0265 86.5933 59.0789 90.5676 54.8114C94.9131 50.1465 102.779 49.9392 114.606 54.224C122.815 57.1957 129.457 61.2731 134.793 64.5558C140.06 67.8039 144.227 70.361 147.94 70.8102C151.969 71.294 155.118 69.238 158.143 64.1411C160.069 60.893 161.595 57.8176 162.943 55.1051C165.652 49.6282 167.618 45.6717 170.822 44.2031C174.205 42.6481 178.785 43.9612 186.156 48.5915C188.26 49.9046 190.199 51.3732 192 52.8936V52.2716C190.254 50.803 188.37 49.4036 186.348 48.1251C178.867 43.4256 174.192 42.1125 170.685 43.7021C167.343 45.2397 165.363 49.2481 162.599 54.8114C161.265 57.5066 159.739 60.5647 157.827 63.8129C151.611 74.3002 145.354 70.4474 134.986 64.072C129.636 60.7721 122.967 56.6773 114.729 53.7056C102.752 49.3863 94.7618 49.6109 90.3063 54.3967C86.222 58.7852 84.9294 66.8882 86.222 79.8981C87.3497 91.1802 94.088 99.8707 106.244 105.745C117.7 111.274 131.259 112.846 138.313 113.312C150.58 114.09 161.347 116.474 170.341 120.362C177.519 123.472 183.584 127.549 188.356 132.49C189.758 133.942 190.969 135.393 192 136.775V136.015Z" fill="#3B82F6"/>
<path d="M192 125.125C189.105 122.375 185.624 119.609 181.678 116.997C170.467 109.562 157.25 104.391 144.484 102.454C131.553 100.483 122.118 98.3213 114.8 95.6237C105.447 92.1998 99.5481 87.9285 96.7627 82.6024C94.8784 78.9882 94.4688 74.8207 95.5201 70.1863C96.3121 66.7623 97.7594 64.497 99.9577 63.2692C107.399 59.0844 121.668 67.8517 134.257 75.5815C138.858 78.4175 143.214 81.0806 146.914 82.9136C153.154 86.009 156.991 86.7007 159.749 85.1962C162.412 83.7437 163.941 80.3889 166.044 75.7372C167.313 72.9358 168.747 69.7712 170.768 66.2781C172.925 62.5429 175.656 60.5888 178.892 60.4678C183.316 60.3122 188.109 63.6151 192 67.2465V66.6067C185.951 61.0212 181.596 59.8626 178.892 59.949C175.533 60.0701 172.693 62.0933 170.454 65.9669C168.419 69.4773 166.986 72.6764 165.702 75.4778C161.579 84.5564 159.694 88.7066 147.064 82.4294C143.378 80.5964 139.036 77.9333 134.434 75.1146C121.763 67.333 107.399 58.5137 99.7939 62.8023C97.5 64.082 95.9298 66.5375 95.1242 70.0652C94.0318 74.838 94.4551 79.1611 96.4077 82.9136C99.2614 88.3262 105.228 92.6667 114.69 96.1252C122.036 98.8228 131.499 100.984 144.443 102.956C157.155 104.893 170.317 110.046 181.486 117.447C185.487 120.11 189.064 122.963 192 125.799V125.125Z" fill="#3B82F6"/>
<path d="M191.986 117.491C184.195 108.925 173.63 105.498 165.347 102.833C157.31 100.237 151.514 98.3676 152.143 93.3142C152.321 91.8432 153.933 91.947 156.763 92.2585C159.387 92.5354 162.64 92.8988 165.716 91.5836C169.351 90.026 171.853 86.5128 173.356 80.8363C174.409 76.8559 176.09 74.5714 178.332 74.0869C182.432 73.1869 187.817 78.2404 192 83.2592V82.5323C191.891 82.4112 191.795 82.2728 191.686 82.1516C186.164 75.7137 181.653 72.8235 178.263 73.5677C175.858 74.0869 174.081 76.4751 172.974 80.6633C169.666 93.1411 161.929 92.2931 156.804 91.7393C154.015 91.4278 151.993 91.2201 151.747 93.245C151.432 95.8063 152.539 97.7792 155.273 99.4233C157.706 100.894 161.205 102.037 165.251 103.335C173.602 106.034 184.25 109.478 192 118.201V117.491H191.986Z" fill="#3B82F6"/>
<path d="M192 112.5C189.368 110.349 186.478 107.298 183.995 104.018C180.278 99.0986 178.067 94.5492 177.782 91.1812C177.632 89.3649 178.053 87.9189 179.057 86.8962C182.584 83.2989 188.337 89.2944 192 94.0731V93.3148C191.24 92.345 190.413 91.3399 189.544 90.3876C187.523 88.1834 185.651 86.667 184.009 85.8911C181.92 84.9036 180.156 85.0976 178.799 86.4906C177.687 87.6192 177.212 89.2238 177.375 91.2517C177.944 98.1288 185.881 108.198 192 113.135V112.5Z" fill="#3B82F6"/>
<path fill-rule="evenodd" clip-rule="evenodd" d="M144.61 91.9003C144.658 91.9423 144.684 91.9657 144.689 91.9694C146.318 93.4895 146.879 94.7364 146.4 95.6929C145.852 96.7006 144.086 97.0934 141.759 97.0934C138.569 97.0934 134.298 96.359 130.547 95.4196C121.416 93.1479 112.709 89.2878 107.261 85.1032C101.128 80.3891 99.0472 75.2822 101.251 70.329C101.84 68.9967 102.826 68.1427 104.167 67.7669C108.493 66.5543 116.638 70.2777 128.357 78.8007C136.592 84.778 143.786 91.1678 144.61 91.9003ZM140.979 96.5469C144.771 96.6664 145.784 95.8637 146.044 95.3854C146.482 94.5485 145.414 93.3016 144.442 92.3964C144.086 92.0719 117.254 68.0573 105.906 68.0573C105.303 68.0573 104.756 68.1256 104.249 68.2623C103.031 68.6039 102.141 69.3725 101.607 70.5681C100.512 73.0276 100.526 75.5213 101.662 77.9979C102.689 80.2525 104.646 82.49 107.466 84.6591C112.874 88.8096 121.526 92.6526 130.616 94.9072C134.517 95.8807 138.2 96.4615 140.979 96.5469Z" fill="#3B82F6"/>
<path fill-rule="evenodd" clip-rule="evenodd" d="M131.125 87.6269C131.224 87.7008 131.279 87.7419 131.285 87.7456C131.296 87.7568 131.309 87.7692 131.324 87.7827C131.559 88.0072 132.113 88.5356 131.83 89.0492C131.653 89.3793 131.108 89.4948 130.372 89.4948C128.355 89.4948 124.935 88.5377 124.063 88.2901C119.526 86.97 115.315 85.0722 112.808 83.2074C110.287 81.3262 109.415 79.4944 110.206 77.7617C110.396 77.3491 110.723 77.0686 111.159 76.9366C112.931 76.3755 116.855 78.0422 122.837 81.8543C126.771 84.3614 130.34 87.0378 131.125 87.6269ZM124.145 87.8116C128.778 89.1483 131.258 89.1813 131.489 88.7687C131.503 88.7357 131.476 88.5377 131.04 88.1581C130.658 87.8611 116.732 77.3327 111.922 77.3327C111.664 77.3327 111.446 77.3657 111.241 77.4317C110.901 77.5307 110.683 77.7287 110.546 78.0092C109.879 79.4614 110.696 81.0622 112.999 82.7784C115.465 84.6266 119.635 86.5079 124.145 87.8116Z" fill="#3B82F6"/>
<path fill-rule="evenodd" clip-rule="evenodd" d="M50.2047 150.944C48.8418 151.676 47.7242 151.972 46.8111 151.972C44.9576 151.972 43.9355 150.735 43.3767 149.463C39.7378 141.223 47.9559 114.688 59.1315 104.339C62.4705 101.255 65.4688 100 68.031 100.628C70.1434 101.15 71.9561 102.91 73.428 105.872C74.8726 108.764 75.5677 112.109 75.4723 115.559C75.3769 118.991 74.491 122.284 72.9237 125.072L72.5012 125.821L72.4766 125.865C67.2781 135.102 61.9068 144.647 50.2047 150.944ZM59.3768 104.774C54.3206 109.461 49.3461 118.12 46.0752 127.929C43.0087 137.128 42.082 145.474 43.7311 149.202C44.835 151.694 46.9474 152.112 50.0411 150.439C61.6528 144.184 66.9952 134.689 72.1605 125.49L72.583 124.741C74.1094 122.04 74.968 118.852 75.0634 115.524C75.1588 112.179 74.4774 108.938 73.0873 106.151C71.6835 103.328 69.9527 101.638 67.9629 101.15C67.554 101.046 67.1315 100.994 66.709 100.994C64.5421 100.994 62.0889 102.265 59.3768 104.774Z" fill="#3B82F6"/>
<path fill-rule="evenodd" clip-rule="evenodd" d="M53.7341 139.496C52.8678 139.957 52.1552 140.152 51.5823 140.152C50.4923 140.152 49.8915 139.46 49.5561 138.733C48.592 136.569 49.1789 131.992 51.0792 126.795C53.0634 121.402 56.0397 116.507 59.0579 113.739C61.0561 111.912 62.8446 111.167 64.3956 111.54C65.6672 111.841 66.7711 112.888 67.6514 114.662C69.398 118.174 69.2863 122.644 67.344 126.068C64.2559 131.513 60.8884 135.664 53.7341 139.496ZM59.3094 114.183C56.3611 116.897 53.4267 121.704 51.4704 127.026C49.6539 131.992 49.0531 136.48 49.9334 138.485C50.5203 139.815 51.7499 139.993 53.5804 139.017C60.6508 135.239 63.9625 131.141 67.0086 125.766C68.8531 122.52 68.9649 118.28 67.302 114.963C66.4776 113.331 65.4855 112.356 64.3258 112.072C64.0882 112.019 63.8507 111.983 63.5992 111.983C62.3276 111.983 60.9023 112.728 59.3094 114.183Z" fill="#3B82F6"/>
<path opacity="0.2" d="M57.1654 130.021C57.3228 130.021 57.5166 129.968 57.7467 129.828C59.5393 128.739 60.375 127.545 61.1501 125.982C61.6588 124.964 61.6951 123.612 61.2349 122.576C60.9927 122.032 60.702 121.716 60.3507 121.61C59.9389 121.487 59.4545 121.716 58.9337 122.26C57.347 123.928 55.9905 128.072 56.5598 129.529C56.6446 129.74 56.8141 130.021 57.1654 130.021Z" fill="#3B82F6" stroke="#60A5FA" stroke-width="5"/>
<path d="M191.959 228.316C188.017 228.09 184.185 227.446 180.795 226.403C176.33 225.029 172.581 222.959 169.659 220.281C166.075 216.994 163.719 212.751 162.63 207.638C161.114 200.456 158.716 193.673 155.697 188.004C152.155 181.343 147.814 176.213 142.77 172.735C133.494 166.318 122.206 165.709 109.237 170.926C93.5254 177.239 81.3005 183.865 72.3696 188.717C60.9716 194.891 54.6869 198.299 53.2535 194.56C53.1295 194.23 53.1157 193.882 53.2259 193.5C54.0391 190.665 60.7786 186.804 68.5932 182.352C74.4093 179.03 81.0111 175.257 86.207 171.257C92.2161 166.631 95.3722 162.44 95.8546 158.457C96.5299 152.857 98.3217 148.927 101.023 147.101C104.096 145.031 108.3 145.571 113.537 148.701C123.157 154.44 146.642 161.292 160.907 161.292C165.827 161.292 169.659 160.474 171.437 158.509C172.512 157.327 172.815 155.779 172.333 153.901C170.748 147.692 172.581 141.275 176.591 138.997C181.622 136.145 187.176 140.284 191.959 146.91V146.04C190.084 143.501 188.182 141.519 186.267 140.092C182.752 137.466 179.251 136.91 176.426 138.527C172.222 140.91 170.293 147.588 171.947 154.057C172.374 155.727 172.112 157.066 171.175 158.109C168.212 161.379 158.633 161.657 144.878 158.857C132.998 156.44 120.194 152.075 113.73 148.214C108.369 145.014 104.041 144.492 100.858 146.631C98.0322 148.527 96.1716 152.596 95.4687 158.37C94.4213 167.013 80.0187 175.257 68.4416 181.865C60.2273 186.561 53.7359 190.265 52.8676 193.308C52.716 193.83 52.7298 194.317 52.9089 194.769C53.6808 196.786 55.5689 197.134 59.0559 195.899C62.2671 194.752 66.8153 192.3 72.5625 189.187C81.4797 184.352 93.7046 177.726 109.389 171.413C122.248 166.248 133.425 166.839 142.604 173.17C147.58 176.613 151.88 181.691 155.38 188.265C158.371 193.899 160.756 200.63 162.258 207.743C163.36 212.96 165.772 217.307 169.438 220.664C172.402 223.377 176.205 225.464 180.726 226.872C184.158 227.933 188.031 228.594 192 228.803V228.316H191.959Z" fill="#3B82F6"/>
<path d="M191.986 217.804C185.526 219.688 180.433 219.395 176.512 216.922C170.729 213.257 168.189 205.269 166.312 197.177C164.324 188.636 158.623 182.326 154.04 177.26C150.962 173.854 148.533 171.174 148.422 169.03C148.395 168.425 148.56 167.889 148.919 167.387C150.175 165.624 154.178 166.73 159.258 168.131C163.33 169.255 168.41 170.655 173.697 171.036C176.14 171.208 177.741 170.69 178.611 169.445C179.853 167.647 179.384 164.638 178.887 161.457C178.183 157.014 177.465 152.432 180.819 149.908C181.937 149.06 183.18 148.905 184.505 149.389C186.741 150.236 189.295 153.037 192 157.55V156.668C189.791 153.072 187.21 149.873 184.629 148.905C183.193 148.352 181.841 148.542 180.612 149.458C177.009 152.173 177.796 157.152 178.486 161.561C178.969 164.621 179.425 167.508 178.307 169.116C177.534 170.223 176.029 170.69 173.724 170.517C168.465 170.136 163.413 168.736 159.355 167.612C153.957 166.125 150.051 165.036 148.629 167.024C148.201 167.629 147.994 168.304 148.036 169.047C148.146 171.399 150.631 174.148 153.792 177.623C158.333 182.637 163.993 188.896 165.939 197.298C167.844 205.494 170.411 213.603 176.347 217.354C178.624 218.789 181.288 219.516 184.367 219.516C186.672 219.516 189.212 219.118 192 218.305V217.804H191.986Z" fill="#3B82F6"/>
<path d="M192 204.405C188.765 205.467 184.817 206.077 181.609 204.527C179.251 203.395 177.538 201.201 176.524 198.032C175.125 193.644 172.672 189.569 170.698 186.296C168.751 183.074 167.079 180.288 167.6 179.035C167.929 178.251 169.121 177.955 171.246 178.112L171.959 178.164C178.319 178.652 181.527 178.895 183.103 177.067C183.871 176.179 184.241 174.786 184.282 172.575C184.351 169.527 185.626 166.985 187.463 166.236C188.833 165.679 190.382 166.114 192 167.438V166.794C189.916 165.192 188.299 165.348 187.339 165.749C185.338 166.567 183.94 169.301 183.871 172.575C183.83 174.629 183.501 175.9 182.829 176.684C181.376 178.373 178.045 178.112 171.986 177.642L171.273 177.589C168.929 177.415 167.654 177.798 167.229 178.791C166.585 180.341 168.162 182.97 170.355 186.627C172.315 189.883 174.755 193.923 176.126 198.241C177.182 201.549 178.977 203.83 181.445 205.032C182.898 205.728 184.488 206.007 186.078 206.007C188.175 206.007 190.259 205.537 191.986 204.98V204.405H192Z" fill="#3B82F6"/>
<path d="M192 194.517C188.695 194.62 184.013 194.106 183.131 190.51C182.594 188.318 182.966 186.194 184.15 184.533C185.748 182.29 188.571 181.125 192 181.194V180.68C188.447 180.628 185.514 181.844 183.848 184.191C182.553 186.006 182.154 188.301 182.732 190.664C183.366 193.233 185.707 194.689 189.686 194.98C190.21 195.014 190.733 195.031 191.229 195.031C191.49 195.031 191.738 195.031 191.986 195.014V194.517H192Z" fill="#3B82F6"/>
<path d="M15.2053 130.623C20.4351 133.33 25.4297 135.931 28.8056 135.931C29.7187 135.931 30.5074 135.739 31.1576 135.32C32.0708 134.726 32.6519 133.661 32.9009 132.177C33.4958 128.686 30.5489 125.316 26.08 120.218C21.6526 115.173 15.5927 108.277 10.2383 97.9417C6.61339 90.941 3.18217 86.4368 0.0138355 84.4291V85.0052C3.07149 87.0129 6.37818 91.4123 9.89241 98.221C15.2883 108.626 21.3621 115.54 25.8033 120.602C30.1615 125.578 33.0531 128.86 32.4997 132.055C32.2645 133.399 31.7664 134.307 30.9639 134.831C28.1 136.734 21.9155 133.522 15.3713 130.117C11.0546 127.883 6.58572 125.561 2.71177 124.513C1.74328 124.251 0.830132 124.077 0 123.989V124.513C0.802461 124.6 1.68794 124.758 2.62875 125.019C6.4612 126.084 10.9024 128.389 15.2053 130.623Z" fill="#3B82F6"/>
<path d="M12.6248 121.578C13.9983 121.578 14.8698 121.14 15.2264 120.282C16.098 118.128 13.47 114.021 7.39531 108.03C4.64848 105.337 1.796 102.846 0 101.315V101.904C6.00869 107.003 16.2565 116.647 14.8831 120.046C14.5925 120.77 13.8002 121.09 12.6909 121.09C9.77237 121.09 4.59565 118.969 0 116.714V117.253C0.990443 117.741 2.03371 118.229 3.09018 118.7C7.3821 120.619 10.5779 121.578 12.6248 121.578Z" fill="#3B82F6"/>
<path fill-rule="evenodd" clip-rule="evenodd" d="M72.4938 161.629C73.2249 160.09 73.9965 158.703 74.8088 157.486C77.3946 153.596 81.28 151.567 85.1925 152.04C87.4939 152.328 88.6582 153.342 88.6717 155.084C88.6988 160.851 74.6599 172.892 68.3377 173.738C67.4171 173.873 66.7131 173.924 66.1851 173.924C65.0479 173.924 64.6689 173.67 64.5335 173.298C64.2627 172.52 65.2375 171.404 66.862 169.544L66.862 169.544C68.5949 167.565 70.964 164.859 72.4938 161.629ZM80.6437 165.874C85.3685 161.68 88.3062 157.536 88.2927 155.101C88.2791 153.664 87.2367 152.818 85.1925 152.564C84.8269 152.514 84.4614 152.497 84.0959 152.497C80.6843 152.497 77.4081 154.425 75.1473 157.807C74.3485 158.991 73.5904 160.378 72.8729 161.883C71.33 165.151 68.9494 167.871 67.207 169.862L67.1599 169.916L67.0985 169.986C65.9532 171.3 64.78 172.646 64.9396 173.078C65.0344 173.349 65.6978 173.586 68.3241 173.23C71.2213 172.842 76.0543 169.95 80.6437 165.874Z" fill="#3B82F6"/>
<path d="M14.1499 69.273C17.2398 76.4306 20.5494 83.7956 23.7766 89.1723C27.3335 95.0678 30.4233 97.9377 33.2386 97.9377C33.2661 97.9377 33.2935 97.9377 33.321 97.9377C36.1225 97.8859 38.5944 95.0505 40.8741 89.3107C45.6669 77.2604 51.3385 69.8954 57.2849 68.0455C61.3498 66.7835 65.5246 68.0282 69.6857 71.7799C72.8854 74.6671 75.1651 75.618 76.6208 74.7017C78.7768 73.3532 78.9004 68.3222 79.0378 62.5131C79.1888 56.1336 79.3536 48.8896 82.3886 45.5702C83.8031 44.0315 85.6982 43.461 88.1839 43.8068C94.6933 44.7403 100.887 43.4956 106.092 40.2453C111.035 37.1506 114.867 32.4308 117.16 26.5872C119.344 21.0375 119.976 14.779 119.014 8.52049C118.616 5.90989 117.943 3.35116 117.023 0.844299H116.556C119.77 9.38492 119.948 18.3751 116.803 26.3624C114.551 32.1023 110.788 36.7357 105.927 39.7785C100.791 42.9942 94.6658 44.2044 88.2388 43.2881C85.6707 42.925 83.6108 43.5474 82.1277 45.1726C78.9554 48.6303 78.7906 55.9953 78.6258 62.4786C78.5022 67.8899 78.3786 73.0074 76.4422 74.2176C75.1239 75.0475 72.9953 74.0966 69.9191 71.3304C65.6482 67.4923 61.3635 66.2129 57.175 67.5096C51.1051 69.4113 45.3373 76.8628 40.5033 89.0513C38.2923 94.601 35.944 97.3326 33.321 97.3845C33.2935 97.3845 33.2661 97.3845 33.2386 97.3845C27.2648 97.3845 20.7142 83.3633 14.5069 68.9791C10.7029 60.1619 6.07494 54.1108 0.732849 50.8951V51.4657C5.93761 54.7159 10.442 60.6632 14.1499 69.273Z" fill="#3B82F6"/>
<path d="M19.1915 47.2803C21.5535 47.2803 23.6287 46.8458 25.3353 45.9595C29.2264 43.9436 31.1651 39.8248 31.0968 33.6727C31.0286 27.6423 32.2983 23.1586 34.9742 19.9783C41.5686 12.0883 55.7676 13.4439 70.813 14.9037C73.0248 15.1122 75.3185 15.3382 77.5712 15.5293C79.7693 15.7205 81.7899 15.8074 83.6467 15.8074C92.1252 15.8074 96.931 13.8784 97.9822 10.0377C98.7195 7.32657 97.4907 4.04199 95.5247 0.844299H94.9923C97.0129 4.02461 98.2963 7.27443 97.6 9.88124C96.3985 14.2954 89.6813 16.0333 77.6122 15.0253C75.3594 14.8342 73.0658 14.6083 70.854 14.3997C55.7266 12.9399 41.4321 11.567 34.7012 19.6133C31.9433 22.9153 30.6326 27.5207 30.7009 33.7075C30.7692 39.6163 28.9124 43.596 25.1988 45.5077C20.4203 47.9754 12.6518 46.8458 3.85936 42.4142C2.80809 41.8929 1.77047 41.3194 0.732849 40.7285V41.302C1.71586 41.8755 2.71252 42.4142 3.70917 42.9008C9.45703 45.7857 14.809 47.2803 19.1915 47.2803Z" fill="#3B82F6"/>
<path d="M11.3926 30.3602C16.3062 29.9826 20.4692 26.7393 23.7858 20.716L24.3318 19.7207C28.3582 12.4104 30.3783 8.73807 33.3674 7.2108C36.3565 5.68353 40.4102 6.23266 48.4904 7.34808C49.4731 7.48537 50.5241 7.62265 51.6296 7.77709C61.1975 9.08128 68.1311 9.51029 72.8264 9.09844C77.3442 8.70375 79.9101 7.55401 80.8929 5.4776C81.4934 4.20773 81.4661 2.6633 80.9748 0.844299H80.5516C81.043 2.59466 81.0976 4.05329 80.538 5.2202C79.6372 7.125 77.1121 8.22326 72.7991 8.60079C68.1311 8.99548 61.2248 8.56647 51.6706 7.26228C50.565 7.10784 49.514 6.97055 48.5313 6.83327C40.3829 5.70069 36.3019 5.13439 33.2036 6.73031C30.1053 8.32622 28.058 12.0329 23.9906 19.429L23.4446 20.4243C20.1962 26.3103 16.1425 29.485 11.3653 29.8453C8.90854 30.0341 5.34618 29.5021 0.732849 26.7908V27.3571C4.78657 29.7081 8.03501 30.3945 10.4509 30.3945C10.7784 30.3945 11.0924 30.3773 11.3926 30.3602Z" fill="#3B82F6"/>
<path d="M16.7638 18.9601C18.7783 17.7643 20.1589 15.7296 20.8491 12.9096C21.8775 8.80453 22.1029 4.66378 21.9339 0.844299H21.5112C21.6803 4.61024 21.4549 8.69744 20.4406 12.749C19.7785 15.4262 18.4684 17.3538 16.5666 18.4782C12.0446 21.1732 5.00098 18.9601 0 16.7826V17.3538C3.36686 18.8173 7.62121 20.263 11.4529 20.263C13.3829 20.2451 15.2142 19.8882 16.7638 18.9601Z" fill="#3B82F6"/>
<path d="M101.013 13.5681C98.2957 20.3092 86.3359 19.3955 86.1994 19.3782C79.4959 19.3782 73.2703 18.7748 67.7819 18.2231C59.6176 17.4128 52.5591 16.7231 47.3438 18.43C44.586 19.3265 42.4425 20.861 40.8042 23.1023C39.0293 25.516 37.8279 28.7745 37.118 33.033C34.756 47.274 28.5714 48.9808 23.5881 50.3428C20.5845 51.1704 17.9905 51.8773 17.1304 55.2565C16.3522 58.3426 17.2533 64.4804 19.4514 70.894C21.7996 77.7731 24.9944 83.1005 27.998 85.1349C28.9673 85.7901 29.9366 86.1177 30.8514 86.1177C32.5989 86.1177 34.2509 84.9453 35.6981 82.6522C37.8962 79.1696 39.6847 75.3766 41.4185 71.7043C44.6542 64.8424 47.4394 58.9288 51.7673 57.6012C54.4296 56.7909 57.5287 57.7909 61.215 60.7046C66.1026 64.5493 69.4885 65.7562 71.5774 64.3942C74.1714 62.7045 74.4308 57.4806 74.7038 51.929C75.0724 44.4809 75.4547 36.7743 81.5165 37.1191C82.9091 37.1881 84.247 37.2398 85.5441 37.2398C98.6506 37.2398 107.156 33.3261 110.829 25.5677C113.723 19.4817 112.986 12.1371 111.866 7.06825C111.334 4.63729 110.665 2.49942 110.078 0.844299H109.627C110.228 2.49942 110.924 4.7235 111.471 7.22342C113.45 16.2404 112.017 22.0333 110.474 25.3091C106.515 33.6537 96.7666 37.4639 81.5302 36.6191C78.6221 36.4639 76.6835 38.0156 75.6049 41.3776C74.6629 44.2913 74.4717 48.1705 74.2942 51.929C74.0348 57.3254 73.7754 62.4115 71.3862 63.9631C69.4339 65.239 66.1845 64.0321 61.4197 60.2908C57.6243 57.3082 54.4296 56.2737 51.6581 57.1357C47.1663 58.515 44.3266 64.5148 41.0499 71.4801C39.3297 75.1352 37.5412 78.911 35.3568 82.3591C33.2269 85.7211 30.8104 86.4969 28.1618 84.7039C25.2401 82.7212 22.1 77.4972 19.7927 70.7216C17.6765 64.5148 16.7481 58.3771 17.4854 55.4461C18.2772 52.3428 20.6391 51.6876 23.6427 50.8773C26.1548 50.1877 28.9946 49.4118 31.534 46.9636C34.4693 44.1361 36.4217 39.619 37.4866 33.1537C38.8109 25.1367 41.8691 20.7575 47.4121 18.9472C49.733 18.1886 52.4499 17.9128 55.4672 17.9128C59.1261 17.9128 63.2629 18.3265 67.7136 18.7576C73.2157 19.292 79.4413 19.9127 86.1448 19.9127C86.1448 19.9127 86.1448 19.9127 86.1584 19.9127C86.1857 19.9127 89.2712 20.1713 92.6435 19.5506C97.2308 18.7231 100.152 16.7921 101.354 13.8267C102.651 10.6026 101.818 6.25793 98.8691 0.86154H98.3776C101.381 6.20621 102.255 10.4647 101.013 13.5681Z" fill="#3B82F6"/>
<path d="M101.898 20.1578C99.656 23.7506 92.8766 25.2403 82.3113 24.4692C74.2882 23.8908 66.8528 22.1908 66.7844 22.1733C66.7434 22.1558 62.2056 21.1218 57.0938 22.4011C54.0732 23.1372 51.4489 24.5218 49.2757 26.5197C46.5558 29.0084 44.5466 32.4435 43.3165 36.7198C40.9382 45.0095 38.273 50.6704 35.1567 54.0354C32.4504 56.9622 29.8125 57.7333 27.3523 58.2766C23.7576 59.0653 22.5411 62.0097 22.1584 64.3406C21.393 68.8973 23.2382 75.0489 26.1085 77.5201C26.8875 78.186 27.6803 78.519 28.4457 78.519C29.1564 78.519 29.8535 78.2386 30.5096 77.6603C33.2022 75.3118 35.9631 70.7901 38.888 66.0231C44.4509 56.9271 50.2051 47.5333 55.9867 52.2477C56.8341 52.9312 57.6542 53.6147 58.4333 54.2807C62.6704 57.8385 66.0327 60.6602 68.1512 59.3282C69.4087 58.5395 70.1194 56.4539 70.3791 52.7385C70.9122 45.0621 71.8963 39.2786 74.9715 36.0188C77.1584 33.6878 80.2747 32.829 84.5118 33.3548C96.3756 34.8445 104.194 32.1455 107.761 25.363C110.618 19.93 110.126 12.8671 109.21 7.88971C108.691 5.06804 107.98 2.57936 107.419 0.844299H106.982C107.542 2.56184 108.28 5.10309 108.814 8.01239C109.702 12.8846 110.18 19.7898 107.419 25.0651C103.948 31.6723 96.2526 34.2837 84.5528 32.829C80.2064 32.2857 76.9944 33.1971 74.7119 35.6157C71.5409 38.9982 70.5158 44.8869 69.9691 52.7034C69.723 56.1735 69.0806 58.189 67.9735 58.8725C66.06 60.0643 62.7934 57.3302 58.6656 53.8601C57.8729 53.1941 57.0528 52.5106 56.2054 51.8271C53.4581 49.5838 50.4922 50.1446 47.1435 53.5446C44.2186 56.489 41.3483 61.1859 38.5737 65.7251C35.6761 70.4747 32.9288 74.9438 30.2909 77.2572C28.7464 78.6067 27.2976 77.9231 26.3408 77.0994C23.5936 74.7334 21.8304 68.8272 22.5548 64.4633C22.9238 62.2901 24.0583 59.5385 27.4206 58.8024C29.9355 58.2416 32.6281 57.4529 35.4164 54.4385C38.5873 51.0034 41.2936 45.2724 43.6992 36.8951C44.902 32.7064 46.8565 29.3589 49.4944 26.9403C51.6129 24.995 54.1962 23.6455 57.1485 22.9094C59.062 22.4362 60.8935 22.2785 62.438 22.2785C64.9529 22.2785 66.6751 22.6816 66.7024 22.6816C66.7708 22.6991 74.2335 24.3991 82.2839 24.9774C93.1363 25.7661 99.8473 24.2589 102.212 20.4733C104.549 16.7403 105.096 11.7279 103.784 5.92681C103.333 3.94638 102.745 2.19379 102.226 0.844299H101.761C102.294 2.17627 102.923 3.99896 103.387 6.06701C104.276 10.0103 104.74 15.6186 101.898 20.1578Z" fill="#3B82F6"/>
<path fill-rule="evenodd" clip-rule="evenodd" d="M58.5743 27.0167C60.0384 26.1163 61.6666 25.9258 63.1717 26.4972C64.6358 27.0513 65.7441 28.2115 66.4556 29.9431C68.5901 35.1553 66.7019 44.3155 65.3883 49.3026C65.0463 50.6186 64.6221 51.3112 64.0611 51.4671L64.0611 51.4671C63.979 51.4844 63.8969 51.5017 63.8148 51.5017C62.9033 51.5017 61.8565 50.1494 60.5535 48.4659L60.5309 48.4368C59.2858 46.8264 57.8765 45.0082 56.1798 43.7268C53.3475 41.5796 51.9519 39.1726 52.034 36.5406C52.1845 31.9518 56.9324 28.0384 58.5743 27.0167ZM63.979 50.9649C64.3758 50.8437 64.7179 50.255 65.0052 49.1467C68.0154 37.6834 66.9755 32.3501 66.0861 30.2029C65.4294 28.6098 64.4032 27.5362 63.0486 27.0167C62.5149 26.8089 61.9676 26.705 61.4066 26.705C60.5036 26.705 59.6005 26.9648 58.7522 27.4842C57.165 28.4713 52.5813 32.2289 52.4444 36.5579C52.3623 38.9822 53.7032 41.2506 56.3987 43.2766C58.1203 44.5632 59.6 46.4786 60.7982 48.0294L60.832 48.0731L60.8475 48.0932C62.1271 49.747 63.2295 51.1719 63.979 50.9649Z" fill="#3B82F6"/>
<path fill-rule="evenodd" clip-rule="evenodd" d="M59.7252 35.7503C60.1468 35.445 60.6166 35.3732 61.0502 35.5707C61.4839 35.7682 61.8091 36.1633 62.0139 36.7739C62.6162 38.4978 62.0982 41.4608 61.7368 43.0771C61.6766 43.3823 61.5562 43.7954 61.2911 43.8852C61.255 43.9031 61.2309 43.9031 61.1948 43.9031C60.8965 43.9031 60.61 43.4627 60.23 42.8785L60.219 42.8616C59.8938 42.3587 59.5204 41.7841 59.0747 41.389C58.2676 40.6707 57.8701 39.8446 57.8942 38.9288C57.9393 37.2125 59.4969 35.9376 59.7028 35.7691C59.7167 35.7577 59.7244 35.7514 59.7252 35.7503ZM61.2189 43.3464C61.255 43.3464 61.3273 43.2027 61.3996 42.8975C61.6646 41.6584 62.2548 38.6055 61.7128 37.0073C61.5441 36.5404 61.3032 36.2351 60.9659 36.0915C60.8334 36.0376 60.6888 36.0017 60.5563 36.0017C60.3275 36.0017 60.1106 36.0735 59.8938 36.2351C59.5686 36.4865 58.3037 37.6538 58.2676 38.9647C58.2435 39.6471 58.5808 40.3115 59.2674 40.9221C59.7493 41.3531 60.1588 41.9816 60.4841 42.4844C60.5004 42.5088 60.517 42.5337 60.5339 42.5588C60.7899 42.9416 61.0945 43.397 61.2189 43.3464Z" fill="#3B82F6"/>
<path d="M192 40.6265C184.415 33.8646 175.28 28.2354 168.038 31.3932C162.799 33.6758 159.164 40.3348 157.257 51.1814C156.38 56.1928 154.185 59.3506 150.742 60.5692C144.296 62.8689 133.981 57.5829 126.781 48.2638C121.006 40.8153 118.688 32.6289 120.416 25.8155C122.021 19.4997 122.474 12.6348 121.774 5.4438C121.623 3.91635 121.418 2.38891 121.171 0.844299H120.746C121.006 2.42323 121.212 3.96784 121.363 5.51245C122.062 12.6348 121.61 19.4311 120.032 25.6782C118.249 32.6804 120.608 41.0384 126.493 48.6413C129.922 53.0692 134.228 56.7935 138.631 59.1275C141.758 60.7923 144.776 61.6332 147.437 61.6332C148.671 61.6332 149.823 61.4444 150.866 61.084C154.405 59.8312 156.764 56.4502 157.669 51.3015C159.548 40.6437 163.073 34.122 168.175 31.8909C175.335 28.7674 184.456 34.4996 192 41.2787V40.6265Z" fill="#3B82F6"/>
<path d="M192 27.4353C186.424 21.4091 177.678 16.0737 170.571 17.8867C166.157 19.0091 162.795 22.7214 160.595 28.8857C157.547 37.4155 153.679 43.3899 149.087 46.6706C144.167 50.1758 139.794 49.5887 136.993 48.4836C133.603 47.1368 130.679 44.305 128.752 40.5063C126.756 36.5867 126.018 31.9592 126.688 27.4871C128.068 18.1975 128.601 9.25327 128.26 0.844299H127.85C128.178 9.20147 127.658 18.1284 126.292 27.3835C125.608 31.9937 126.36 36.7421 128.41 40.7653C130.392 44.6676 133.398 47.5685 136.883 48.9498C138.346 49.5369 139.849 49.8132 141.352 49.8132C144.044 49.8132 146.764 48.898 149.292 47.1023C153.966 43.7697 157.889 37.7091 160.977 29.0756C163.123 23.0668 166.375 19.4753 170.653 18.3702C174.124 17.4896 178.293 18.2838 182.707 20.7012C186.014 22.5142 189.349 25.1733 192 28.1087V27.4353Z" fill="#3B82F6"/>
<path d="M102.442 237.765C102.093 237.357 101.651 237.194 101.141 237.26C99.4112 237.488 97.0509 240.501 95.2672 243.156H95.7902C97.4934 240.647 99.666 237.96 101.182 237.748C101.57 237.699 101.892 237.813 102.161 238.123C103.086 239.182 104.119 241.12 105.057 243.156H105.527C104.548 241.006 103.435 238.921 102.442 237.765Z" fill="#3B82F6"/>
<path d="M192 17.4844C190.872 17.6072 189.621 17.6072 188.286 17.4493C183.596 16.8876 177.929 14.5706 172.73 11.06C166.706 6.98779 161.672 13.0611 155.854 20.0822C151.425 25.4358 146.405 31.4915 140.188 33.6856C138.001 34.4579 136.309 34.0542 135.14 32.5271C131.165 27.2788 133.82 10.0946 135.635 0.844299H135.209C134.659 3.6703 134.026 7.19842 133.531 10.8845C132.004 22.3465 132.444 29.7538 134.837 32.9133C135.704 34.0542 136.818 34.6159 138.166 34.6159C138.826 34.6159 139.528 34.4755 140.298 34.2122C146.597 32.0006 151.673 25.8922 156.129 20.4859C161.837 13.6052 166.761 7.65479 172.524 11.5515C177.833 15.1498 183.417 17.4317 188.231 17.9934C189.579 18.1514 190.845 18.1689 191.986 18.0461V17.4844H192Z" fill="#3B82F6"/>
<path d="M141.412 23.5884C141.633 23.6229 141.84 23.6401 142.061 23.6401C145.736 23.6401 149.838 18.6012 152.034 15.4606C154.949 11.319 157.78 5.93497 159.756 0.844299H159.3C157.352 5.81417 154.576 11.0602 151.73 15.1154C147.807 20.7065 144.161 23.5366 141.467 23.0707C140.348 22.8809 139.616 22.2424 139.23 21.1552C137.779 17.0136 141.702 7.38452 144.782 0.861556H144.299C143.691 2.17305 143.042 3.58808 142.42 5.05489C139.036 13.0101 137.835 18.4977 138.857 21.3623C139.285 22.622 140.155 23.3813 141.412 23.5884Z" fill="#3B82F6"/>
<path d="M146.352 12.6465C146.437 12.6644 146.536 12.6644 146.636 12.6644C147.489 12.6644 148.84 12.0196 150.716 9.31535C152.11 7.32743 153.446 4.62314 154.228 2.25913C154.356 1.86512 154.498 1.38158 154.626 0.862209H154.185C154.086 1.2383 153.972 1.6323 153.844 2.04422C152.237 6.91552 148.569 12.4853 146.423 12.0913C146.025 12.0196 145.769 11.8047 145.626 11.4107C144.901 9.33326 147.844 3.1904 149.11 0.844299H148.598C147.688 2.58149 144.375 9.11835 145.243 11.6256C145.427 12.1987 145.797 12.539 146.352 12.6465Z" fill="#3B82F6"/>
<path d="M191.987 10.6179C190.176 11.9234 188.075 12.3997 185.723 11.994C183.093 11.5529 180.146 10.071 176.947 7.5835C174.159 5.41355 171.661 2.83783 169.89 0.844299H169.282C171.093 2.9084 173.749 5.71346 176.749 8.04219C180 10.565 183 12.0822 185.683 12.5232C186.238 12.6114 186.78 12.6644 187.322 12.6644C189.04 12.6644 190.599 12.188 192 11.2177V10.6179H191.987Z" fill="#3B82F6"/>
<path fill-rule="evenodd" clip-rule="evenodd" d="M103.621 156.017C106.246 154.052 110.794 154 117.141 155.876C121.527 157.183 125.296 158.998 125.836 159.258C125.855 159.267 125.869 159.274 125.88 159.279C129.961 160.244 130.469 161.103 130.442 161.735C130.414 162.594 129.315 163.769 121.016 165.348C115.864 166.33 109.722 167.137 105.243 167.716L104.13 167.856C103.319 167.961 102.591 168.014 101.931 168.014C99.417 168.014 97.9468 167.242 97.5621 165.734C96.8614 163.015 100.09 158.665 103.621 156.017ZM120.934 164.839C129.081 163.278 129.988 162.138 130.002 161.717C130.016 161.507 129.727 160.735 125.756 159.788L125.715 159.77C125.713 159.769 125.701 159.763 125.679 159.753C125.269 159.553 121.466 157.7 117.032 156.385C114.627 155.666 111.755 155.034 109.145 155.034C107.098 155.034 105.202 155.438 103.814 156.473C102.069 157.788 100.434 159.49 99.3208 161.156C98.1529 162.927 97.6583 164.488 97.9331 165.576C98.359 167.189 100.475 167.803 104.061 167.33L105.188 167.207C105.519 167.163 105.859 167.118 106.207 167.072C110.567 166.493 116.175 165.749 120.934 164.839Z" fill="#3B82F6"/>
<path fill-rule="evenodd" clip-rule="evenodd" d="M106.998 45.8221C106.884 44.504 108.437 42.9553 111.598 41.1925C113.677 40.0392 116.141 40.4017 117.878 42.1316C119.245 43.499 120.726 45.4431 119.986 47.0577C119.416 48.3098 117.607 48.9689 115.201 48.9689C113.592 48.9689 111.712 48.6723 109.747 48.0627C107.967 47.519 107.069 46.7776 106.998 45.8221ZM109.846 47.5849C114.389 49.0018 118.761 48.6558 119.601 46.8271C120.085 45.7891 119.387 44.2898 117.593 42.5105C116.596 41.5385 115.357 41.0277 114.104 41.0277C113.307 41.0277 112.509 41.2254 111.769 41.6373C108.878 43.2519 107.326 44.7182 107.411 45.7726C107.468 46.4811 108.308 47.1071 109.846 47.5849Z" fill="#3B82F6"/>
<path d="M150.445 237.806C143.259 236.667 139.038 229.04 133.714 219.376C132.224 216.684 130.679 213.888 128.941 210.989C124.583 203.724 119.7 199.358 114.444 198.012C108.472 196.493 101.906 198.84 94.9405 204.984C87.2851 211.731 76.209 222.586 66.7054 232.664C64.0432 235.494 60.5673 239.256 57.1603 243.156H57.7672C60.4707 240.084 63.5467 236.702 66.9674 233.06C76.4573 223 87.5196 212.145 95.1612 205.415C108.141 193.974 119.396 195.958 128.596 211.317C130.321 214.199 131.865 216.994 133.355 219.686C138.748 229.454 143.011 237.15 150.376 238.324C155.604 239.152 158.597 240.774 159.314 243.156H159.756C159.08 240.481 155.949 238.686 150.445 237.806Z" fill="#3B82F6"/>
<path d="M111.49 217.936C108.898 216.514 106.237 216.685 103.577 218.433C96.9805 222.75 91.0014 227.856 85.8039 233.63C82.6086 237.176 80.195 240.432 78.4122 243.156H78.9608C83.02 237.039 90.8642 227.325 103.755 218.878C106.306 217.216 108.843 217.045 111.311 218.399C116.289 221.123 120.184 229.518 122.57 236.097C123.489 238.598 124.257 241.048 124.874 243.156H125.313C124.682 240.997 123.9 238.478 122.954 235.891C119.444 226.211 115.576 220.163 111.49 217.936Z" fill="#3B82F6"/>
<path opacity="0.459984" d="M167.139 136.603C167.535 136.723 167.903 136.775 168.257 136.775C170.154 136.775 171.485 135.141 171.981 133.387C172.576 131.237 172.108 128.347 169.673 127.109C165.737 125.096 162.976 124.494 161.447 125.303C160.753 125.664 160.427 126.524 160.498 127.728C160.597 129.259 161.348 131.168 162.509 132.853C163.811 134.745 165.454 136.07 167.139 136.603Z" fill="#3B82F6" stroke="#60A5FA" stroke-width="5"/>
<path fill-rule="evenodd" clip-rule="evenodd" d="M46.4518 182.244C45.9422 180.99 46.0296 179.178 47.4565 178.168C49.6115 176.653 52.5236 177.35 53.6739 178.534C54.169 179.039 54.3437 179.631 54.1544 180.189C53.7758 181.373 52.3198 182.592 49.8444 183.794C49.4804 183.968 49.1164 184.055 48.7815 184.055C47.704 184.055 46.8595 183.219 46.4518 182.244ZM49.6843 183.306C52.014 182.174 53.4263 181.025 53.7612 179.997C53.9068 179.562 53.6448 179.178 53.3827 178.935C52.7711 178.308 51.5626 177.837 50.2812 177.837C49.393 177.837 48.4757 178.064 47.6749 178.621C46.4809 179.457 46.3936 180.92 46.8449 182C47.2963 183.08 48.3738 183.951 49.6843 183.306Z" fill="#3B82F6"/>
<path fill-rule="evenodd" clip-rule="evenodd" d="M69.562 225.585C69.023 227.263 63.1768 230.924 61.2419 231.89C60.8273 232.11 60.4403 232.195 60.0533 232.178C58.8647 232.178 57.9387 231.246 57.4827 230.127C56.9022 228.704 57.0128 226.653 58.5883 225.518C61.3525 223.518 68.0002 223.196 69.327 224.585C69.6034 224.857 69.6864 225.213 69.562 225.585ZM58.7956 225.958C57.4412 226.941 57.3444 228.653 57.8558 229.907C58.3672 231.161 59.5972 232.178 61.076 231.415C63.5223 230.178 68.7327 226.721 69.1612 225.399C69.2026 225.28 69.2164 225.145 69.0506 224.975C67.862 223.738 61.3248 224.128 58.7956 225.958Z" fill="#3B82F6"/>
<path d="M11.6458 12.0914C13.9607 10.2742 13.189 4.4951 12.4317 0.844299H11.9887C12.1888 1.76109 12.3746 2.82522 12.5317 3.93847C12.9033 6.7707 13.0176 10.4215 11.4029 11.6985C9.51669 13.1719 5.68715 11.2401 0 5.95214V6.59062C4.38682 10.6343 7.71624 12.6644 9.94537 12.6644C10.6027 12.648 11.1743 12.4679 11.6458 12.0914Z" fill="#3B82F6"/>
<path fill-rule="evenodd" clip-rule="evenodd" d="M92.7657 127.488C90.7683 127.488 88.6351 127.242 87.1133 126.537C84.9393 125.536 84.8306 124.044 85.1296 122.961C85.4421 121.797 86.0807 120.944 87.0454 120.435C88.771 119.533 91.4885 119.747 95.1163 121.091C97.793 122.092 100.008 123.355 100.035 123.371C101.176 124.06 101.217 124.716 101.068 125.143C100.619 126.373 97.793 127.094 95.3065 127.357C94.532 127.439 93.6624 127.488 92.7657 127.488ZM87.2084 120.878C86.3524 121.321 85.7817 122.076 85.51 123.109C85.1703 124.388 85.7546 125.389 87.2764 126.077C89.0699 126.897 92.1406 127.193 95.2793 126.865C98.1734 126.553 100.402 125.766 100.701 124.946C100.85 124.519 100.32 124.093 99.8583 123.814C99.7224 123.732 93.8255 120.386 89.5862 120.386C88.703 120.386 87.8878 120.517 87.2084 120.878Z" fill="#3B82F6"/>
<path d="M167.397 226.768C160.148 225.123 159.283 218.969 158.185 211.169C156.949 202.462 155.425 191.628 144.331 182.989C138.77 178.669 133.443 175.961 128.033 174.709C123.2 173.595 118.395 173.664 113.369 174.932C104.033 177.298 95.2183 183.606 86.6782 189.691C78.6872 195.399 70.4217 201.313 61.5246 204.227C56.7465 205.804 52.1881 206.387 47.5886 206.044C42.426 205.65 37.3459 204.09 32.0735 201.262C22.8606 196.325 13.7026 194.611 4.86046 196.153C3.22658 196.445 1.60642 196.839 0 197.353V197.885C1.63388 197.37 3.26777 196.959 4.92911 196.668C13.7026 195.125 22.7782 196.839 31.9225 201.724C38.4168 205.204 44.4306 206.644 50.1012 206.644C63.7901 206.644 75.4744 198.296 86.8841 190.154C95.7812 183.794 104.17 177.795 113.452 175.446C118.422 174.178 123.173 174.109 127.951 175.224C133.319 176.458 138.605 179.149 144.111 183.434C148.985 187.223 155.054 191.937 157.786 211.255C158.349 215.283 158.844 218.763 160.148 221.557C161.59 224.66 163.883 226.477 167.329 227.265C177.53 229.597 183.599 233.282 186.414 238.87C187.086 240.19 187.581 241.63 187.91 243.156H188.336C187.993 241.527 187.485 240.019 186.757 238.596C183.874 232.888 177.723 229.117 167.397 226.768Z" fill="#3B82F6"/>
<path d="M159.43 232.454C150.794 230.852 149.984 227.631 148.226 220.61C146.688 214.492 144.368 205.221 135.293 191.775C123.087 173.677 110.14 184.993 95.147 198.098C79.9482 211.39 62.7174 226.438 41.6835 215.599C33.6241 211.441 25.4961 209.396 17.5054 209.482C11.5604 209.55 5.67038 210.811 0 213.231V213.776C5.67038 211.339 11.5467 210.078 17.5054 210.01C25.4412 209.908 33.5143 211.97 41.5187 216.094C50.9922 220.985 60.5618 221.07 70.7493 216.383C79.6599 212.276 87.6506 205.289 95.3804 198.541C102.795 192.065 109.797 185.947 116.346 183.766C123.581 181.346 129.499 184.004 134.977 192.133C143.997 205.511 146.304 214.713 147.828 220.797C149.585 227.818 150.478 231.346 159.375 232.999C164.578 233.97 167.832 236.356 169.054 240.088C169.356 241.026 169.535 242.048 169.603 243.156H170.015C169.96 241.98 169.768 240.889 169.439 239.901C168.148 235.947 164.784 233.459 159.43 232.454Z" fill="#3B82F6"/>
<path d="M116.109 209.151C112.3 205.977 107.189 206.08 100.928 209.511C95.9538 212.222 90.2401 217.026 83.9372 223.751C77.4973 230.648 71.7426 238.197 68.1527 243.156H68.7007C72.2906 238.197 77.9084 230.854 84.1976 224.129C90.473 217.421 96.1456 212.651 101.078 209.957C107.203 206.612 112.177 206.475 115.863 209.563C124.426 216.717 128.975 228.796 132.99 239.45C133.47 240.702 133.922 241.938 134.388 243.139H134.84C134.346 241.869 133.853 240.565 133.36 239.227C129.345 228.521 124.769 216.374 116.109 209.151Z" fill="#3B82F6"/>
<path d="M105.917 227.422C104.161 225.852 101.892 225.886 99.1779 227.525C97.0442 228.822 94.6268 231.108 91.9933 234.333C89.4814 237.422 87.226 240.784 85.7405 243.156H86.2672C90.4807 236.518 100.137 222.883 105.674 227.832C109.253 231.04 111.346 237.405 113.156 243.156H113.588C111.751 237.303 109.631 230.75 105.917 227.422Z" fill="#3B82F6"/>
<path d="M37.9592 227.207C34.4463 226.098 30.8103 224.955 27.5433 223.594C19.4375 220.183 10.0468 223.056 3.59499 226.065C2.32376 226.653 1.12087 227.275 0 227.896V228.451C1.16188 227.812 2.41944 227.157 3.74535 226.535C10.1288 223.561 19.4239 220.721 27.4066 224.082C30.6736 225.46 34.3232 226.602 37.8499 227.712C45.778 230.199 53.2687 232.552 53.7881 236.82C54.0068 238.618 52.9953 240.719 50.7262 243.156H51.3276C53.4737 240.719 54.4169 238.601 54.1982 236.736C53.6241 232.131 46.3657 229.846 37.9592 227.207Z" fill="#3B82F6"/>
<path d="M33.2101 234.287C30.468 233.696 27.1303 233.731 24.0558 234.392C18.3639 235.609 7.22922 239.504 0 242.13V242.669C7.22922 240.043 18.4331 236.131 24.1389 234.896C27.1719 234.253 30.4541 234.2 33.1547 234.792C37.0601 235.644 38.4312 237.435 38.9021 238.808C39.3314 240.043 39.2206 241.504 38.5835 243.156H39.0544C39.6638 241.452 39.733 239.921 39.276 238.6C38.3481 235.922 35.4675 234.774 33.2101 234.287Z" fill="#3B82F6"/>
<path d="M16.8195 138.515C23.0054 143.751 27.0426 151.259 30.5872 157.89C34.6107 165.399 38.1006 171.891 43.5474 172.942C44.0538 173.045 44.5738 173.08 45.0939 173.08C49.2953 173.08 54.2906 170.031 60.627 163.608C65.3759 158.785 69.331 154.411 72.8208 150.536C80.1836 142.356 85.5073 136.449 91.3921 134.537C97.4 132.574 103.996 134.64 114.151 141.65C122.445 147.384 132.339 151.328 141.276 152.465C145.436 152.999 149.214 152.895 152.211 152.138C155.372 151.346 157.589 149.916 158.78 147.867C160.408 145.06 160.805 139.841 153.401 130.903C144.547 120.208 134.474 118.917 123.813 117.556C116.751 116.661 109.443 115.713 102.067 111.976C93.7186 107.757 86.479 100.42 79.9236 89.5877C75.0789 81.5795 69.4268 77.7907 63.5557 78.6346C59.5595 79.2029 55.6317 81.8551 51.8819 86.4878C48.1184 91.1721 44.7244 97.6304 41.823 105.69C39.6607 111.666 37.2794 114.732 34.5013 115.042C28.4933 115.713 21.5411 103.004 14.8351 90.7071C11.4822 84.5589 8.01973 78.2213 4.72151 73.6747C3.01082 71.2808 1.45067 69.5414 0 68.3875V69.0248C4.61203 72.848 9.62094 82.0101 14.5067 90.9655C17.8733 97.1309 21.3631 103.52 24.7161 108.17C28.3017 113.13 31.3673 115.558 34.0633 115.558C34.2276 115.558 34.3918 115.541 34.556 115.524C37.4847 115.197 39.9892 112.045 42.2062 105.88C45.0939 97.8715 48.4468 91.4649 52.183 86.8322C55.8644 82.2684 59.71 79.6679 63.6104 79.1168C69.3173 78.3074 74.8599 82.0273 79.6088 89.8805C86.2053 100.799 93.5133 108.17 101.916 112.424C109.348 116.196 116.683 117.126 123.772 118.038C134.365 119.399 144.369 120.673 153.128 131.248C160.326 139.945 159.998 144.905 158.465 147.539C156.221 151.38 149.816 153.016 141.331 151.931C132.449 150.794 122.609 146.868 114.356 141.167C104.106 134.089 97.4274 132.023 91.2963 134.02C85.3157 135.966 79.9647 141.908 72.5608 150.14C69.071 154.015 65.1295 158.389 60.3806 163.194C53.3463 170.324 48.0226 173.252 43.6158 172.408C38.3469 171.409 34.9118 165.002 30.9293 157.58C27.3574 150.915 23.3065 143.372 17.0522 138.067C11.8654 133.676 6.92489 131.471 2.31286 131.471C1.53278 131.471 0.766391 131.54 0 131.661V132.178C5.18682 131.334 10.8253 133.435 16.8195 138.515Z" fill="#3B82F6"/>
<path d="M7.71325 189.741C14.0791 189.862 21.2011 191.475 27.4845 192.88C36.4901 194.909 43.5847 196.504 44.4646 192.828C45.7845 187.313 41.4948 182.752 34.3728 175.208C29.2719 169.798 22.906 163.069 16.1002 153.392C10.9855 146.143 5.88462 142.848 0.962438 143.646C0.659957 143.698 0.343728 143.768 0 143.854V144.392C0.329979 144.305 0.673707 144.218 1.01743 144.166C5.80213 143.403 10.7656 146.629 15.7977 153.756C22.631 163.468 28.9969 170.214 34.1116 175.642C41.0961 183.047 45.3171 187.521 44.0797 192.706C43.3097 195.932 36.0089 194.285 27.567 192.394C18.4513 190.331 7.74075 187.92 0 190.018V190.556C2.19986 189.949 4.75719 189.689 7.71325 189.741Z" fill="#3B82F6"/>
<path d="M26.1417 187.433C29.7551 187.433 31.7842 186.607 32.1733 184.939C33.035 181.305 25.8498 174.756 21.472 171.175C15.2875 166.101 7.92172 161.325 3.96086 159.798C2.64057 159.288 1.30639 158.937 0 158.727V159.253C1.2647 159.464 2.55719 159.815 3.83578 160.307C7.76885 161.817 15.093 166.557 21.2358 171.614C28.3931 177.495 32.3262 182.411 31.7564 184.781C31.2005 187.099 26.2529 187.52 17.8169 185.975C10.9931 184.746 3.86358 182.587 0.0138978 181.217V181.762C3.90527 183.149 10.9931 185.273 17.7752 186.52C21.1524 187.134 23.9458 187.433 26.1417 187.433Z" fill="#3B82F6"/>
<path d="M8.19273 177.301C9.85062 177.301 10.7763 176.896 10.9559 176.086C11.3427 174.465 8.57957 171.77 6.18945 169.797C4.1309 168.088 1.78223 166.467 0 165.481V166.062C1.74078 167.049 3.99275 168.617 5.9684 170.255C9.03549 172.791 10.7901 174.976 10.5552 175.945C10.1822 177.512 4.64209 176.632 0 175.31V175.839C1.39539 176.226 2.95657 176.614 4.4763 176.896C5.99603 177.16 7.22563 177.301 8.19273 177.301Z" fill="#3B82F6"/>
<path fill-rule="evenodd" clip-rule="evenodd" d="M46.6459 163.792C46.2501 163.792 45.8679 163.741 45.4994 163.62C42.1556 162.585 39.4942 159.582 37.8018 154.975C36.0957 150.281 35.5225 144.225 36.164 137.443C36.7509 131.335 38.4569 125.278 41.132 119.929C50.6449 100.862 58.5472 90.4051 64.6207 88.8521C66.5724 88.3517 68.3604 88.7831 69.9026 90.1462C75.6867 95.2259 79.4595 100.171 82.787 104.532L82.9095 104.693L82.9392 104.732C88.0842 111.477 92.1529 116.812 101.062 119.895C106.699 121.844 109.36 123.639 109.183 125.399C109.046 126.762 107.135 127.849 103.491 128.643C99.9562 129.402 94.8518 129.868 88.7373 129.972C84.1242 130.058 79.3336 132.319 74.079 136.926C69.4932 140.963 65.153 146.226 61.3178 150.885C55.6538 157.77 50.6994 163.792 46.6459 163.792ZM41.4868 120.205C38.8527 125.485 37.1603 131.473 36.5871 137.512C35.9593 144.19 36.5188 150.161 38.1976 154.768C39.8217 159.237 42.3876 162.136 45.6086 163.137C45.9498 163.24 46.3047 163.292 46.6596 163.292C50.5355 163.292 55.4351 157.339 61.0307 150.541L61.0312 150.54C64.8664 145.864 69.2202 140.584 73.847 136.529C79.1699 131.87 84.0423 129.558 88.7373 129.471C94.8381 129.368 99.9153 128.902 103.423 128.143C107.941 127.159 108.718 125.968 108.787 125.347C108.978 123.38 103.382 121.223 100.966 120.395C91.931 117.255 87.8229 111.871 82.6365 105.055L82.5804 104.981C79.2504 100.616 75.4795 95.6738 69.6843 90.5776C68.6197 89.6458 67.446 89.1799 66.163 89.1799C65.699 89.1799 65.2076 89.2489 64.7163 89.3697C58.7656 90.8882 50.9451 101.259 41.4868 120.205Z" fill="#3B82F6"/>
<path fill-rule="evenodd" clip-rule="evenodd" d="M143.73 145.102C137.33 143.935 130.029 141.997 125.716 140.676C118.511 138.48 115.427 136.541 115.085 133.968C114.772 131.652 116.764 128.856 121.336 125.168C123.833 123.161 127.081 122.732 131.025 123.933C134.15 124.876 137.712 126.832 141.615 129.748C148.111 134.603 153.42 140.538 153.679 140.83C155.59 142.528 156.354 143.798 156.013 144.741C155.685 145.616 154.375 146.062 152.028 146.062C150.022 146.062 147.265 145.736 143.73 145.102ZM126.917 123.778C124.843 123.778 123.055 124.396 121.554 125.597C117.201 129.113 115.222 131.824 115.481 133.848C115.863 136.747 120.913 138.669 125.798 140.161C137.644 143.781 154.607 147.315 155.617 144.518C155.753 144.141 155.658 143.215 153.42 141.225L153.406 141.207C153.403 141.205 153.382 141.182 153.345 141.14C152.731 140.464 147.609 134.817 141.397 130.177C137.535 127.295 134.014 125.356 130.93 124.43C129.497 124.001 128.159 123.778 126.917 123.778Z" fill="#3B82F6"/>
<path fill-rule="evenodd" clip-rule="evenodd" d="M138.195 138.092C135.836 137.631 133.133 136.869 131.542 136.355C129.25 135.611 127.699 134.849 127.527 133.574C127.394 132.582 128.123 131.466 129.886 129.96C131.582 128.489 134.153 129.092 137.493 131.749C139.865 133.627 141.813 135.93 141.959 136.107C142.489 136.603 143.059 137.259 142.86 137.844C142.754 138.162 142.449 138.464 141.283 138.464C140.594 138.464 139.613 138.357 138.195 138.092ZM132.019 129.729C131.317 129.729 130.668 129.942 130.111 130.42C128.574 131.731 127.831 132.777 127.911 133.485C128.044 134.531 129.859 135.257 131.622 135.824C137.546 137.755 142.237 138.357 142.489 137.631C142.489 137.631 142.569 137.365 141.721 136.55L141.707 136.533C141.705 136.53 141.695 136.519 141.679 136.5C141.24 135.987 135.878 129.729 132.019 129.729Z" fill="#3B82F6"/>
<path d="M170.389 43.7118C167.059 45.255 165.086 49.2776 162.331 54.8607C161.002 57.5656 159.481 60.6346 157.576 63.8943C151.382 74.419 145.147 70.5525 134.814 64.1544C129.483 60.8427 122.837 56.7333 114.628 53.751C102.692 49.4163 94.7304 49.6417 90.2904 54.4446C86.2204 58.8487 84.9322 66.9806 86.2204 80.0368C87.3441 91.3591 94.0589 100.081 106.173 105.976C117.588 111.524 131.1 113.102 138.13 113.57C150.354 114.351 161.084 116.743 170.047 120.645C177.2 123.766 183.243 127.858 187.998 132.816C189.561 134.446 190.89 136.059 192 137.619V136.856C190.945 135.435 189.725 133.944 188.3 132.452C183.504 127.441 177.419 123.315 170.211 120.176C161.208 116.258 150.423 113.865 138.158 113.067C131.141 112.617 117.684 111.039 106.324 105.508C94.3604 99.6992 87.7278 91.1164 86.6315 80.0022C85.357 67.1367 86.6041 59.1608 90.5645 54.8781C94.8949 50.1966 102.733 49.9885 114.519 54.2886C122.7 57.2708 129.319 61.3628 134.636 64.6572C139.884 67.9169 144.037 70.4831 147.737 70.9339C151.752 71.4194 154.89 69.3561 157.905 64.2411C159.823 60.9814 161.345 57.895 162.688 55.1728C165.387 49.6764 167.347 45.7058 170.54 44.232C173.911 42.6715 178.474 43.9892 185.82 48.6361C188.053 50.0579 190.109 51.6184 192 53.2656V52.6067C190.164 51.0115 188.163 49.5204 185.998 48.1506C178.529 43.4344 173.87 42.0993 170.389 43.7118Z" fill="#3B82F6"/>
<path d="M178.497 59.9506C175.125 60.0726 172.273 62.1104 170.025 66.012C167.982 69.5479 166.543 72.7702 165.254 75.5919C161.114 84.7362 159.222 88.9165 146.542 82.5938C142.84 80.7476 138.481 78.0652 133.861 75.2261C121.139 67.3881 106.718 58.505 99.0821 62.8246C96.779 64.1135 95.2025 66.5868 94.3937 70.1401C93.297 74.9474 93.722 79.3019 95.6823 83.0815C98.5337 88.5682 104.538 92.9226 114.025 96.4062C121.4 99.1234 130.9 101.301 143.896 103.286C156.659 105.237 169.874 110.428 181.088 117.882C185.269 120.669 188.984 123.665 192 126.644V125.947C189.025 123.056 185.406 120.164 181.266 117.412C170.011 109.922 156.741 104.715 143.923 102.764C130.941 100.778 121.468 98.6009 114.121 95.8837C104.73 92.4349 98.8079 88.1327 96.0113 82.768C94.1195 79.1277 93.7082 74.93 94.7638 70.262C95.5589 66.8133 97.0121 64.5315 99.2192 63.2949C106.69 59.0797 121.016 67.9106 133.656 75.6964C138.275 78.5529 142.648 81.2353 146.364 83.0815C152.628 86.1993 156.481 86.8961 159.25 85.3807C161.923 83.9176 163.458 80.5385 165.57 75.8531C166.844 73.0314 168.284 69.844 170.313 66.3256C172.479 62.5633 175.22 60.5951 178.469 60.4732C183.048 60.3164 188.024 63.8697 191.986 67.6493V66.9874C185.762 61.0654 181.266 59.8461 178.497 59.9506Z" fill="#3B82F6"/>
<path d="M177.768 72.7223C175.341 73.237 173.548 75.6042 172.431 79.7554C169.094 92.1232 161.288 91.2827 156.117 90.7338C153.303 90.425 151.262 90.2192 151.014 92.2262C150.697 94.7649 151.814 96.7204 154.572 98.35C157.027 99.8081 160.557 100.94 164.639 102.227C173.19 104.937 184.139 108.419 191.986 117.356V116.653C184.098 107.87 173.231 104.422 164.736 101.729C156.627 99.1563 150.78 97.3037 151.414 92.2948C151.593 90.8367 153.221 90.9396 156.075 91.2484C158.723 91.5228 162.005 91.8831 165.108 90.5794C168.777 89.0356 171.3 85.5533 172.817 79.9269C173.879 75.9816 175.575 73.7173 177.837 73.237C182.098 72.3107 187.711 77.6455 192 82.7573V82.0368C191.779 81.7624 191.545 81.5051 191.31 81.2306C185.739 74.8494 181.188 71.9847 177.768 72.7223Z" fill="#3B82F6"/>
<path d="M183.445 85.9034C181.303 84.8962 179.494 85.0941 178.103 86.5149C176.963 87.666 176.476 89.3027 176.643 91.3711C177.241 98.5294 185.685 109.069 192 113.979V113.332C189.204 111.119 186.088 107.882 183.417 104.375C179.606 99.3568 177.338 94.7165 177.046 91.2812C176.893 89.4286 177.324 87.9538 178.354 86.9106C182.096 83.1156 188.258 89.7704 192 94.6985V93.9251C191.138 92.792 190.15 91.6049 189.107 90.4718C187.034 88.2416 185.128 86.6948 183.445 85.9034Z" fill="#3B82F6"/>
<path fill-rule="evenodd" clip-rule="evenodd" d="M144.605 91.9166C144.652 91.9585 144.679 91.9819 144.683 91.9856C146.312 93.506 146.887 94.7531 146.394 95.6926C145.847 96.7005 144.081 97.0934 141.754 97.0934C138.565 97.0934 134.294 96.3589 130.543 95.4193C121.414 93.1473 112.708 89.2865 107.26 85.1012C101.128 80.3864 99.0474 75.2786 101.251 70.3245C101.84 68.9921 102.825 68.1379 104.167 67.7621C108.492 66.5663 116.636 70.2733 128.353 78.8147C136.587 84.7931 143.781 91.184 144.605 91.9166ZM140.974 96.5468C144.765 96.6664 145.778 95.8635 146.038 95.3851C146.49 94.5652 145.422 93.301 144.437 92.3956C144.081 92.0711 117.252 68.0525 105.905 68.0525C105.303 68.0525 104.755 68.1209 104.249 68.2575C103.031 68.5992 102.141 69.3679 101.607 70.5637C100.512 73.0236 100.526 75.5177 101.662 77.9948C102.688 80.2497 104.646 82.4876 107.465 84.6571C112.872 88.8082 121.523 92.6519 130.612 94.9068C134.513 95.8805 138.195 96.4614 140.974 96.5468Z" fill="#3B82F6"/>
<path fill-rule="evenodd" clip-rule="evenodd" d="M131.133 86.7819C131.232 86.8559 131.286 86.8969 131.292 86.9006C131.497 87.0822 132.137 87.66 131.824 88.2048C131.646 88.535 131.102 88.6505 130.366 88.6505C128.35 88.6505 124.931 87.693 124.059 87.4454C119.523 86.1247 115.314 84.2263 112.807 82.3608C110.287 80.4788 109.415 78.6464 110.206 76.913C110.396 76.5003 110.723 76.2197 111.159 76.0876C112.93 75.5428 116.867 77.1937 122.847 81.0071C126.78 83.5152 130.348 86.1926 131.133 86.7819ZM124.154 86.9502C128.786 88.2873 131.265 88.3204 131.497 87.9076C131.524 87.8911 131.483 87.693 131.047 87.2968C130.666 86.9997 116.744 76.4673 111.936 76.4673C111.677 76.4673 111.459 76.5003 111.254 76.5663C110.914 76.6654 110.696 76.8635 110.56 77.1441C109.892 78.5969 110.71 80.1982 113.012 81.9151C115.477 83.764 119.646 85.646 124.154 86.9502Z" fill="#3B82F6"/>
<path fill-rule="evenodd" clip-rule="evenodd" d="M49.4718 150.944C48.109 151.676 46.9914 151.972 46.0783 151.972C44.2248 151.972 43.2163 150.753 42.6439 149.463C39.005 141.223 47.2231 114.688 58.3986 104.339C61.7377 101.255 64.736 100 67.2982 100.628C69.4106 101.15 71.2232 102.91 72.6951 105.872C74.1398 108.764 74.8349 112.109 74.7394 115.559C74.6441 118.991 73.7582 122.284 72.1909 125.072L71.7684 125.821L71.7437 125.865C66.5453 135.102 61.174 144.647 49.4718 150.944ZM58.6439 104.792C53.5877 109.478 48.6132 118.137 45.3423 127.946C42.2759 137.128 41.3628 145.491 42.9982 149.22C44.1021 151.711 46.2146 152.129 49.3083 150.457C60.9199 144.202 66.2624 134.706 71.4277 125.507L71.8502 124.758C73.3766 122.058 74.2352 118.869 74.3306 115.541C74.426 112.196 73.7445 108.956 72.3544 106.168C70.9507 103.346 69.2198 101.656 67.23 101.168C66.8212 101.063 66.3987 101.011 65.9762 101.011C63.8092 101.011 61.3561 102.283 58.6439 104.792Z" fill="#3B82F6"/>
<path fill-rule="evenodd" clip-rule="evenodd" d="M53.7341 139.496C52.8678 139.957 52.1552 140.152 51.5823 140.152C50.4784 140.152 49.8775 139.46 49.5561 138.733C48.592 136.569 49.1789 131.992 51.0792 126.795C53.0634 121.402 56.0397 116.507 59.0579 113.739C61.0561 111.912 62.8446 111.167 64.3956 111.54C65.6672 111.841 66.7711 112.888 67.6514 114.662C69.398 118.174 69.2863 122.644 67.344 126.068C64.2559 131.513 60.8884 135.664 53.7341 139.496ZM59.3094 114.183C56.3611 116.897 53.4267 121.704 51.4705 127.026C49.64 131.975 49.0391 136.48 49.9334 138.485C50.5203 139.815 51.7499 139.993 53.5804 139.017C60.6508 135.239 63.9625 131.141 67.0086 125.766C68.8531 122.52 68.9649 118.28 67.3021 114.963C66.4776 113.331 65.4855 112.356 64.3258 112.072C64.0882 112.019 63.8507 111.983 63.5992 111.983C62.3276 111.983 60.9023 112.728 59.3094 114.183Z" fill="#3B82F6"/>
<path d="M185.924 140.092C182.418 137.466 178.927 136.91 176.109 138.527C171.916 140.909 169.991 147.586 171.641 154.054C172.067 155.723 171.806 157.062 170.871 158.105C167.915 161.374 158.361 161.652 144.642 158.853C132.792 156.436 120.021 152.072 113.574 148.212C108.226 145.013 103.91 144.491 100.734 146.63C97.916 148.525 96.0602 152.594 95.3591 158.366C94.3143 167.008 79.9488 175.249 68.4014 181.857C60.2082 186.551 53.7334 190.255 52.8673 193.298C52.7161 193.819 52.7299 194.306 52.9086 194.758C53.6784 196.775 55.5617 197.123 59.0397 195.888C62.2427 194.741 66.7792 192.289 72.5117 189.177C81.406 184.343 93.5995 177.718 109.243 171.407C122.069 166.243 133.218 166.834 142.374 173.163C147.336 176.606 151.625 181.683 155.117 188.255C158.1 193.889 160.478 200.618 161.977 207.729C163.076 212.945 165.482 217.292 169.139 220.648C172.094 223.36 175.889 225.447 180.398 226.855C183.917 227.951 187.917 228.612 192 228.803V228.281C187.945 228.09 183.986 227.429 180.494 226.334C176.04 224.96 172.301 222.891 169.386 220.213C165.812 216.927 163.461 212.685 162.375 207.573C160.863 200.392 158.471 193.611 155.461 187.942C151.928 181.283 147.597 176.154 142.566 172.676C133.314 166.26 122.056 165.669 109.12 170.868C93.4483 177.179 81.2547 183.804 72.3467 188.655C60.978 194.828 54.7094 198.236 53.2797 194.497C53.156 194.167 53.1423 193.819 53.2522 193.437C54.0633 190.603 60.7856 186.743 68.5801 182.291C74.3813 178.97 80.9661 175.197 86.1486 171.198C92.1423 166.573 95.2904 162.383 95.7715 158.401C96.4451 152.802 98.2322 148.873 100.927 147.047C103.992 144.978 108.185 145.517 113.409 148.647C123.004 154.384 146.429 161.235 160.657 161.235C165.565 161.235 169.386 160.418 171.16 158.453C172.232 157.271 172.534 155.723 172.053 153.845C170.472 147.638 172.301 141.222 176.301 138.944C181.442 136.023 187.134 140.44 191.986 147.36V146.473C189.979 143.778 187.958 141.622 185.924 140.092Z" fill="#3B82F6"/>
<path d="M184.321 148.905C182.898 148.352 181.556 148.542 180.338 149.458C176.766 152.173 177.546 157.152 178.23 161.561C178.709 164.621 179.161 167.508 178.052 169.116C177.286 170.223 175.794 170.69 173.508 170.517C168.293 170.136 163.284 168.736 159.259 167.612C153.908 166.125 150.034 165.036 148.624 167.024C148.2 167.629 147.995 168.304 148.036 169.047C148.145 171.399 150.609 174.148 153.743 177.623C158.247 182.637 163.858 188.896 165.788 197.298C167.677 205.494 170.223 213.603 176.109 217.354C178.367 218.789 181.009 219.516 184.061 219.516C186.443 219.516 189.085 219.083 191.986 218.202V217.666C185.416 219.671 180.242 219.412 176.287 216.888C170.552 213.222 168.033 205.234 166.172 197.143C164.201 188.602 158.548 182.291 154.003 177.225C150.951 173.819 148.542 171.139 148.433 168.995C148.405 168.39 148.569 167.854 148.925 167.353C150.171 165.589 154.14 166.696 159.177 168.096C163.215 169.22 168.252 170.621 173.494 171.001C175.917 171.174 177.505 170.655 178.367 169.41C179.599 167.612 179.134 164.604 178.641 161.423C177.943 156.979 177.231 152.397 180.557 149.873C181.666 149.026 182.898 148.87 184.212 149.354C186.525 150.236 189.194 153.262 192 158.12V157.221C189.728 153.435 187.018 149.925 184.321 148.905Z" fill="#3B82F6"/>
<path d="M187.054 165.742C185.08 166.561 183.702 169.295 183.634 172.569C183.594 174.624 183.269 175.895 182.607 176.679C181.175 178.368 177.891 178.107 171.917 177.637L171.214 177.585C168.903 177.411 167.646 177.794 167.227 178.786C166.592 180.336 168.146 182.966 170.309 186.623C172.241 189.88 174.647 193.921 175.999 198.24C177.039 201.549 178.81 203.83 181.242 205.032C182.675 205.728 184.243 206.007 185.81 206.007C188.027 206.007 190.23 205.467 192 204.857V204.3C188.756 205.432 184.689 206.146 181.391 204.544C179.066 203.412 177.377 201.218 176.377 198.048C174.998 193.659 172.579 189.584 170.633 186.31C168.714 183.088 167.065 180.302 167.579 179.048C167.903 178.264 169.079 177.968 171.174 178.125L171.877 178.177C178.147 178.664 181.31 178.908 182.864 177.08C183.621 176.191 183.986 174.798 184.026 172.586C184.094 169.539 185.351 166.996 187.162 166.247C188.608 165.655 190.27 166.195 192 167.745V167.083C189.784 165.185 188.067 165.324 187.054 165.742Z" fill="#3B82F6"/>
<path d="M183.798 184.208C182.55 186.021 182.165 188.312 182.723 190.671C183.333 193.236 185.59 194.689 189.425 194.98C189.93 195.014 190.434 195.031 190.912 195.031C191.283 195.031 191.655 195.014 192 194.997V194.484C188.801 194.638 183.97 194.228 183.094 190.5C182.577 188.312 182.935 186.192 184.076 184.533C185.669 182.225 188.523 181.045 191.987 181.199V180.686C188.43 180.566 185.47 181.798 183.798 184.208Z" fill="#3B82F6"/>
<path d="M15.2127 130.623C20.4403 133.33 25.4329 135.931 28.8073 135.931C29.7201 135.931 30.5084 135.739 31.1584 135.32C32.0712 134.726 32.652 133.661 32.9009 132.177C33.4956 128.686 30.5499 125.316 26.0829 120.218C21.6574 115.173 15.5999 108.277 10.2478 97.9417C6.61061 90.941 3.19467 86.4368 0.0138297 84.4291V85.0052C3.0702 87.0129 6.37551 91.4123 9.88826 98.221C15.2819 108.626 21.3531 115.54 25.7925 120.602C30.1488 125.578 33.0392 128.86 32.486 132.055C32.2509 133.399 31.7531 134.307 30.9509 134.831C28.0882 136.734 21.9063 133.522 15.3648 130.117C11.05 127.883 6.58295 125.561 2.71063 124.513C1.74255 124.251 0.829784 124.077 0 123.989V124.513C0.802125 124.6 1.68723 124.758 2.62765 125.019C6.47232 126.084 10.9255 128.389 15.2127 130.623Z" fill="#3B82F6"/>
<path d="M12.6248 120.734C13.9983 120.734 14.8698 120.296 15.2264 119.438C16.098 117.283 13.47 113.177 7.39531 107.186C4.64848 104.493 1.796 102.002 0 100.471V101.06C6.00869 106.159 16.2565 115.802 14.8831 119.202C14.5925 119.926 13.8002 120.245 12.6909 120.245C9.77237 120.245 4.59565 118.125 0 115.87V116.408C0.990443 116.896 2.03371 117.384 3.09018 117.856C7.36889 119.774 10.5647 120.734 12.6248 120.734Z" fill="#3B82F6"/>
<path fill-rule="evenodd" clip-rule="evenodd" d="M71.761 161.629C72.4921 160.09 73.2637 158.703 74.076 157.486C76.6482 153.596 80.5472 151.567 84.4596 152.04C86.7611 152.328 87.9254 153.342 87.9389 155.084C87.966 160.851 73.9271 172.892 67.6049 173.738C66.6843 173.873 65.9803 173.924 65.4523 173.924C64.3151 173.924 63.9361 173.67 63.8007 173.298C63.5299 172.52 64.5047 171.404 66.1292 169.544L66.1292 169.544C67.8621 167.565 70.2312 164.859 71.761 161.629ZM79.8973 165.874C84.6221 161.68 87.5598 157.536 87.5463 155.101C87.5463 153.664 86.4903 152.801 84.4461 152.564C84.0806 152.514 83.715 152.497 83.3495 152.497C79.9379 152.497 76.6617 154.425 74.4009 157.807C73.6022 158.991 72.844 160.378 72.1265 161.883C70.5836 165.151 68.203 167.871 66.4606 169.862L66.4135 169.916L66.3521 169.986C65.2068 171.3 64.0337 172.646 64.1933 173.078C64.288 173.349 64.9514 173.586 67.5778 173.23C70.4749 172.842 75.3079 169.95 79.8973 165.874Z" fill="#3B82F6"/>
<path d="M13.417 69.273C16.5069 76.4306 19.8166 83.7956 23.0438 89.1723C26.6006 95.0678 29.6905 97.9377 32.5057 97.9377C32.5332 97.9377 32.5607 97.9377 32.5881 97.9377C35.3896 97.8859 37.8616 95.0505 40.1412 89.3107C44.934 77.2604 50.6057 69.8954 56.552 68.0455C60.617 66.7835 64.7918 68.0282 68.9528 71.7799C72.1526 74.6671 74.4322 75.618 75.8879 74.7017C78.044 73.3532 78.1676 68.3222 78.3049 62.5131C78.456 56.1336 78.6208 48.8896 81.6557 45.5702C83.0702 44.0315 84.9654 43.461 87.451 43.8068C93.9604 44.7403 100.154 43.4956 105.359 40.2453C110.303 37.1506 114.134 32.4308 116.427 26.5872C118.611 21.0375 119.243 14.779 118.281 8.52049C117.883 5.90989 117.21 3.35116 116.29 0.844299H115.823C119.037 9.38492 119.215 18.3751 116.07 26.3624C113.818 32.1023 110.055 36.7357 105.194 39.7785C100.058 42.9942 93.9329 44.2044 87.506 43.2881C84.9379 42.925 82.878 43.5474 81.3948 45.1726C78.2225 48.6303 78.0577 55.9953 77.8929 62.4786C77.7693 67.8899 77.6457 73.0074 75.7094 74.2176C74.391 75.0475 72.2625 74.0966 69.1863 71.3304C64.9154 67.4923 60.6307 66.2129 56.4422 67.5096C50.3722 69.4113 44.6044 76.8628 39.7704 89.0513C37.5594 94.601 35.2111 97.3326 32.5881 97.3845C32.5607 97.3845 32.5332 97.3845 32.5057 97.3845C26.5319 97.3845 19.9813 83.3633 13.7741 68.9791C9.97008 60.2137 5.35583 54.1627 0 50.947V51.5175C5.19103 54.7159 9.69542 60.6632 13.417 69.273Z" fill="#3B82F6"/>
<path d="M18.4587 47.2803C20.8206 47.2803 22.8959 46.8458 24.6025 45.9595C28.4935 43.9436 30.4322 39.8248 30.364 33.6727C30.2957 27.6423 31.5654 23.1586 34.2414 19.9783C40.8357 12.0883 55.0347 13.4439 70.0802 14.9037C72.2919 15.1122 74.5856 15.3382 76.8383 15.5293C79.0365 15.7205 81.0571 15.8074 82.9139 15.8074C91.3923 15.8074 96.1981 13.8784 97.2494 10.0377C97.9866 7.32657 96.7579 4.04199 94.7919 0.844299H94.2594C96.28 4.02461 97.5634 7.27443 96.8671 9.88124C95.6657 14.2954 88.9484 16.0333 76.8793 15.0253C74.6266 14.8342 72.3329 14.6083 70.1211 14.3997C54.9938 12.9399 40.6992 11.567 33.9683 19.6133C31.2105 22.9153 29.8998 27.5207 29.968 33.7075C30.0363 39.6163 28.1795 43.596 24.4659 45.5077C19.6874 47.9754 11.919 46.8458 3.12651 42.4142C2.07524 41.8929 1.03762 41.3194 0 40.7285V41.302C0.983007 41.8755 1.97967 42.4142 2.97633 42.9008C8.73784 45.7857 14.0898 47.2803 18.4587 47.2803Z" fill="#3B82F6"/>
<path d="M10.6598 30.3602C15.5734 29.9826 19.7363 26.7393 23.053 20.716L23.599 19.7207C27.6254 12.4104 29.6454 8.73807 32.6345 7.2108C35.6236 5.68353 39.6774 6.23266 47.7575 7.34808C48.7402 7.48537 49.7912 7.62265 50.8968 7.77709C60.4783 9.06412 67.4119 9.51029 72.0935 9.09844C76.6113 8.70375 79.1773 7.55401 80.16 5.4776C80.7606 4.20773 80.7333 2.6633 80.2419 0.844299H79.8188C80.3102 2.59466 80.3648 4.05329 79.8051 5.2202C78.9043 7.09068 76.3793 8.2061 72.0662 8.58363C67.3983 8.99548 60.4919 8.56647 50.9377 7.26228C49.8321 7.10784 48.7812 6.97055 47.7985 6.83327C39.6501 5.70069 35.569 5.13439 32.4707 6.73031C29.3724 8.32622 27.3251 12.0329 23.2577 19.429L22.7118 20.4243C19.4633 26.3103 15.4096 29.485 10.6325 29.8453C8.17569 30.0341 4.61333 29.5021 0 26.7908V27.3571C4.05372 29.7081 7.30216 30.3945 9.71802 30.3945C10.0592 30.3945 10.3732 30.3773 10.6598 30.3602Z" fill="#3B82F6"/>
<path d="M16.7638 18.9767C18.7783 17.7798 20.1589 15.7433 20.8491 12.9207C21.8775 8.81186 22.1029 4.6673 21.9339 0.844299H21.5112C21.6803 4.6137 21.4549 8.70467 20.4406 12.7599C19.7785 15.4396 18.4684 17.3689 16.5666 18.4944C12.0446 21.1741 5.01507 18.9767 0 16.7794V17.3511C3.36686 18.816 7.62121 20.263 11.4529 20.263C13.3829 20.263 15.2142 19.8878 16.7638 18.9767Z" fill="#3B82F6"/>
<path d="M101.013 13.5681C98.3093 20.3092 86.3359 19.3955 86.1994 19.3782C79.4959 19.3782 73.2703 18.7748 67.7819 18.2231C59.6176 17.4128 52.5591 16.7231 47.3438 18.43C44.586 19.3265 42.4425 20.861 40.8042 23.1023C39.0293 25.516 37.8279 28.7745 37.118 33.033C34.756 47.274 28.5714 48.9808 23.5881 50.3428C20.5845 51.1704 17.9905 51.8773 17.1304 55.2565C16.3522 58.3426 17.2533 64.4804 19.4514 70.894C21.7996 77.7731 24.9944 83.1005 27.998 85.1349C28.9673 85.7901 29.9366 86.1177 30.8514 86.1177C32.5989 86.1177 34.2509 84.9453 35.6981 82.6522C37.8962 79.1696 39.6847 75.3766 41.4185 71.7043C44.6542 64.8424 47.4394 58.9288 51.7673 57.6012C54.4296 56.7909 57.5287 57.7909 61.215 60.7046C66.1026 64.5493 69.4885 65.7562 71.5774 64.3942C74.1714 62.7045 74.4308 57.4806 74.7038 51.929C75.0724 44.4809 75.4547 36.7743 81.5165 37.1191C82.9091 37.1881 84.247 37.2398 85.5441 37.2398C98.6506 37.2398 107.156 33.3261 110.829 25.5677C113.723 19.4817 112.986 12.1371 111.866 7.06825C111.334 4.63729 110.665 2.49942 110.078 0.844299H109.627C110.228 2.49942 110.924 4.7235 111.471 7.22342C113.45 16.2404 112.017 22.0333 110.474 25.3091C106.515 33.6537 96.7666 37.4639 81.5302 36.6191C78.6221 36.4639 76.6835 38.0156 75.6049 41.3776C74.6629 44.2913 74.4717 48.1705 74.2942 51.929C74.0348 57.3254 73.7754 62.4115 71.3862 63.9631C69.4339 65.239 66.1845 64.0321 61.4197 60.2908C57.6243 57.3082 54.4296 56.2737 51.6581 57.1357C47.1663 58.515 44.3266 64.5148 41.0499 71.4801C39.3297 75.1352 37.5412 78.911 35.3568 82.3591C33.2269 85.7211 30.8104 86.4969 28.1618 84.7039C25.2401 82.7212 22.1 77.4972 19.7927 70.7216C17.6765 64.5148 16.7481 58.3771 17.4854 55.4461C18.2772 52.3428 20.6391 51.6876 23.6427 50.8773C26.1548 50.1877 28.9946 49.4118 31.534 46.9636C34.4693 44.1361 36.4217 39.619 37.4866 33.1537C38.8109 25.1367 41.8691 20.7575 47.4121 18.9472C49.733 18.1886 52.4499 17.9128 55.4672 17.9128C59.1261 17.9128 63.2629 18.3265 67.7136 18.7576C73.2157 19.292 79.4413 19.9127 86.1448 19.9127C86.1448 19.9127 86.1448 19.9127 86.1584 19.9127C86.1857 19.9127 89.2712 20.1713 92.6435 19.5506C97.2308 18.7231 100.152 16.7921 101.354 13.8267C102.651 10.6026 101.818 6.25793 98.8691 0.86154H98.3776C101.381 6.18897 102.255 10.4647 101.013 13.5681Z" fill="#3B82F6"/>
<path d="M101.898 19.3135C99.656 22.9063 92.8766 24.396 82.3113 23.6249C74.2882 23.0465 66.8528 21.3465 66.7844 21.329C66.7434 21.3115 62.2056 20.2775 57.0938 21.5568C54.0732 22.2929 51.4489 23.6775 49.2757 25.6754C46.5558 28.1641 44.5466 31.5992 43.3165 35.8755C40.9382 44.1652 38.273 49.8261 35.1567 53.1911C32.4504 56.1179 29.8125 56.889 27.3523 57.4323C23.7576 58.221 22.5411 61.1654 22.1584 63.4963C21.393 68.053 23.2382 74.2046 26.1085 76.6758C26.8875 77.3417 27.6803 77.6747 28.4457 77.6747C29.1564 77.6747 29.8535 77.3943 30.5096 76.816C33.2022 74.4675 35.9631 69.9458 38.888 65.1788C44.4509 56.0828 50.2051 46.689 55.9867 51.4034C56.8341 52.0869 57.6542 52.7704 58.4333 53.4364C62.6704 56.9942 66.0327 59.8159 68.1512 58.4839C69.4087 57.6952 70.1194 55.6096 70.3791 51.8942C70.9122 44.2178 71.8963 38.4343 74.9715 35.1745C77.1584 32.8435 80.2747 31.9847 84.5118 32.5105C96.3756 34.0002 104.194 31.3012 107.761 24.5187C110.618 19.0857 110.126 12.0228 109.21 7.04541C108.691 4.22374 107.98 1.73506 107.419 0H106.982C107.542 1.71754 108.28 4.25879 108.814 7.16809C109.702 12.0403 110.18 18.9455 107.419 24.2208C103.948 30.828 96.2526 33.4394 84.5528 31.9847C80.2064 31.4414 76.9944 32.3528 74.7119 34.7714C71.5409 38.1539 70.5158 44.0426 69.9691 51.8591C69.723 55.3292 69.0806 57.3447 67.9735 58.0282C66.06 59.22 62.7934 56.4859 58.6656 53.0158C57.8729 52.3498 57.0528 51.6663 56.2054 50.9828C53.4581 48.7395 50.4922 49.3003 47.1435 52.7003C44.2186 55.6447 41.3483 60.3416 38.5737 64.8808C35.6761 69.6304 32.9288 74.0995 30.2909 76.4129C28.7464 77.7624 27.2976 77.0788 26.3408 76.2551C23.5936 73.8891 21.8304 67.9829 22.5548 63.619C22.9238 61.4458 24.0583 58.6942 27.4206 57.9581C29.9355 57.3973 32.6281 56.6086 35.4164 53.5942C38.5873 50.1591 41.2936 44.4281 43.6992 36.0508C44.902 31.8621 46.8565 28.5146 49.4944 26.096C51.6129 24.1507 54.1962 22.8012 57.1485 22.0651C59.062 21.5919 60.8935 21.4342 62.438 21.4342C64.9529 21.4342 66.6751 21.8373 66.7024 21.8373C66.7708 21.8548 74.2335 23.5548 82.2839 24.1331C93.1363 24.9218 99.8473 23.4146 102.212 19.629C104.549 15.9135 105.096 10.8836 103.784 5.10003C103.333 3.11961 102.745 1.36702 102.226 0.0175259H101.761C102.294 1.34949 102.923 3.17219 103.387 5.24024C104.276 9.14851 104.727 14.7743 101.898 19.3135Z" fill="#3B82F6"/>
<path fill-rule="evenodd" clip-rule="evenodd" d="M57.8415 27.0167C59.3055 26.1163 60.9338 25.9258 62.4389 26.4972C63.9166 27.0513 65.0249 28.2115 65.7228 29.9431C67.8573 35.1553 65.969 44.3155 64.6555 49.3026C64.3134 50.6186 63.8893 51.3112 63.3283 51.4671L63.3282 51.4671C63.2462 51.4844 63.1641 51.5017 63.082 51.5017C62.1705 51.5017 61.1237 50.1494 59.8207 48.4659L59.7981 48.4368C58.553 46.8264 57.1437 45.0082 55.447 43.7268C52.6147 41.5796 51.219 39.1726 51.3011 36.5406C51.4516 31.9518 56.1996 28.0384 57.8415 27.0167ZM63.2462 50.9649C63.643 50.8437 63.985 50.255 64.2724 49.1467C67.2963 37.6834 66.2564 32.3501 65.3533 30.2029C64.6965 28.6098 63.6703 27.5362 62.3157 27.0167C61.7821 26.8089 61.2348 26.705 60.6738 26.705C59.7707 26.705 58.8677 26.9648 58.0194 27.4842C56.4322 28.4713 51.8484 32.2289 51.7116 36.5579C51.6295 38.9822 52.9704 41.2506 55.6659 43.2766C57.3874 44.5632 58.8672 46.4786 60.0654 48.0294L60.0991 48.0731L60.1147 48.0932C61.3942 49.747 62.4966 51.1719 63.2462 50.9649Z" fill="#3B82F6"/>
<path fill-rule="evenodd" clip-rule="evenodd" d="M58.9923 43.906C59.4139 43.6007 59.8837 43.5289 60.3174 43.7264C60.739 43.924 61.0643 44.319 61.2811 44.9296C61.8834 46.6535 61.3654 49.6166 61.004 51.2328C60.9438 51.5381 60.8233 51.9511 60.5583 52.0409C60.5222 52.0588 60.4981 52.0588 60.462 52.0588C60.1637 52.0588 59.8772 51.6184 59.4972 51.0342L59.4862 51.0173C59.161 50.5145 58.7876 49.9398 58.3419 49.5447C57.5348 48.8264 57.1372 48.0004 57.1613 47.0845C57.2065 45.3682 58.7641 44.0934 58.97 43.9248C58.9838 43.9135 58.9916 43.9071 58.9923 43.906ZM60.474 51.5021C60.5101 51.5021 60.5824 51.3585 60.6547 51.0532C60.9318 49.8141 61.51 46.7613 60.9679 45.163C60.7992 44.6961 60.5583 44.3908 60.221 44.2472C60.0885 44.1933 59.944 44.1574 59.8115 44.1574C59.5826 44.1574 59.3658 44.2292 59.1489 44.3908C58.8237 44.6422 57.5589 45.8095 57.5227 47.1204C57.4986 47.8028 57.8359 48.4673 58.5225 49.0778C59.0044 49.5088 59.414 50.1373 59.7392 50.6402C59.7555 50.6645 59.7722 50.6894 59.789 50.7146C60.0451 51.0973 60.3497 51.5527 60.474 51.5021Z" fill="#3B82F6"/>
<path d="M167.801 31.3932C162.587 33.6758 158.97 40.3348 157.073 51.1814C156.199 56.1928 154.015 59.3506 150.589 60.5692C144.174 62.8689 133.91 57.5829 126.745 48.2638C120.999 40.8153 118.692 32.6289 120.412 25.8155C122.009 19.4997 122.459 12.6348 121.763 5.4438C121.613 3.93352 121.408 2.38891 121.162 0.844299H120.739C120.999 2.42323 121.203 3.96784 121.353 5.51245C122.05 12.6348 121.599 19.4311 120.03 25.6782C118.255 32.6804 120.603 41.0384 126.458 48.6413C129.87 53.0692 134.156 56.7935 138.537 59.1275C141.649 60.7923 144.652 61.6332 147.3 61.6332C148.528 61.6332 149.675 61.4444 150.712 61.084C154.234 59.8312 156.581 56.4502 157.482 51.3015C159.352 40.6437 162.86 34.122 167.937 31.8909C175.171 28.7159 184.439 34.6884 192 41.6048V40.9698C184.384 34.0534 175.116 28.201 167.801 31.3932Z" fill="#3B82F6"/>
<path d="M170.092 17.8867C165.652 19.0091 162.271 22.7214 160.058 28.8857C156.993 37.4155 153.104 43.3899 148.486 46.6706C143.538 50.1758 139.14 49.5887 136.322 48.4836C132.913 47.1368 129.972 44.305 128.034 40.5063C126.028 36.5867 125.285 31.9592 125.959 27.4871C127.347 18.1975 127.869 9.236 127.539 0.844299H127.127C127.457 9.20147 126.935 18.1284 125.56 27.3835C124.873 31.9937 125.629 36.7421 127.691 40.7653C129.684 44.6676 132.707 47.5685 136.212 48.9498C137.683 49.5369 139.195 49.8132 140.706 49.8132C143.414 49.8132 146.149 48.898 148.692 47.1023C153.392 43.7697 157.337 37.7091 160.443 29.0756C162.601 23.0668 165.872 19.4753 170.174 18.3702C173.665 17.4896 177.857 18.2838 182.297 20.7012C185.774 22.5833 189.292 25.4151 192 28.5058V27.8152C186.406 21.6336 177.39 16.0391 170.092 17.8867Z" fill="#3B82F6"/>
<path d="M102.442 237.839C102.093 237.373 101.651 237.187 101.141 237.262C99.4112 237.522 97.0509 240.966 95.2672 244H95.7902C97.4934 241.133 99.666 238.062 101.182 237.82C101.57 237.764 101.892 237.894 102.161 238.248C103.086 239.458 104.119 241.673 105.057 244H105.527C104.548 241.543 103.448 239.142 102.442 237.839Z" fill="#3B82F6"/>
<path d="M187.939 17.4668C183.277 16.9051 177.645 14.5882 172.477 11.0776C166.488 7.00534 161.484 13.0786 155.701 20.0997C151.299 25.4534 146.309 31.5091 140.129 33.7032C137.955 34.4755 136.274 34.0718 135.111 32.5447C131.16 27.2964 133.813 10.1122 135.617 0.844299H135.193C134.647 3.6703 134.018 7.19842 133.526 10.8845C132.008 22.3465 132.445 29.7538 134.824 32.9133C135.686 34.0542 136.793 34.6159 138.133 34.6159C138.789 34.6159 139.486 34.4755 140.252 34.2122C146.514 32.0006 151.559 25.8922 155.988 20.4859C161.662 13.6052 166.557 7.65479 172.285 11.5515C177.563 15.1498 183.113 17.4317 187.898 17.9934C189.389 18.1689 190.756 18.1689 192 17.9934V17.4668C190.783 17.6423 189.416 17.6423 187.939 17.4668Z" fill="#3B82F6"/>
<path d="M141.412 23.5884C141.633 23.6229 141.84 23.6401 142.061 23.6401C145.736 23.6401 149.838 18.6012 152.034 15.4606C154.949 11.319 157.78 5.93497 159.756 0.844299H159.3C157.352 5.81417 154.576 11.0602 151.73 15.1154C147.807 20.7065 144.161 23.5366 141.467 23.0707C140.348 22.8809 139.616 22.2424 139.23 21.1552C137.779 17.0136 141.702 7.38452 144.782 0.861556H144.299C143.691 2.17305 143.042 3.58808 142.42 5.05489C139.036 13.0101 137.835 18.4977 138.857 21.3623C139.299 22.622 140.155 23.364 141.412 23.5884Z" fill="#3B82F6"/>
<path d="M146.352 12.6465C146.437 12.6644 146.536 12.6644 146.636 12.6644C147.489 12.6644 148.84 12.0196 150.716 9.31535C152.11 7.32743 153.446 4.62314 154.228 2.25913C154.356 1.86512 154.498 1.38158 154.626 0.862209H154.185C154.086 1.2383 153.972 1.6323 153.844 2.04422C152.237 6.91552 148.569 12.4853 146.423 12.0913C146.025 12.0196 145.769 11.8047 145.626 11.4107C144.901 9.33326 147.844 3.1904 149.11 0.844299H148.598C147.688 2.58149 144.375 9.11835 145.243 11.6256C145.427 12.2166 145.811 12.5569 146.352 12.6465Z" fill="#3B82F6"/>
<path d="M185.258 11.994C182.585 11.5529 179.59 10.071 176.34 7.5835C173.506 5.41355 170.967 2.83783 169.167 0.844299H168.55C170.39 2.9084 173.089 5.71346 176.138 8.04219C179.442 10.565 182.491 12.0822 185.217 12.5232C185.781 12.6114 186.332 12.6644 186.883 12.6644C188.777 12.6644 190.482 12.0998 192 10.9707V10.3533C190.053 11.8528 187.81 12.4174 185.258 11.994Z" fill="#3B82F6"/>
<path fill-rule="evenodd" clip-rule="evenodd" d="M103.621 156.017C106.246 154.052 110.794 154 117.141 155.876C121.689 157.227 125.564 159.121 125.88 159.279C129.961 160.244 130.469 161.103 130.442 161.735C130.414 162.594 129.315 163.769 121.016 165.348C115.864 166.33 109.722 167.137 105.243 167.716L104.13 167.856C103.319 167.961 102.591 168.014 101.931 168.014C99.417 168.014 97.9468 167.242 97.5621 165.734C96.8614 163.015 100.09 158.665 103.621 156.017ZM120.947 164.839C129.095 163.278 130.002 162.138 130.016 161.717C130.016 161.507 129.727 160.735 125.784 159.805L125.743 159.788C125.741 159.787 125.728 159.781 125.707 159.77C125.297 159.571 121.494 157.718 117.059 156.403C114.655 155.683 111.783 155.052 109.172 155.052C107.125 155.052 105.229 155.455 103.841 156.49C102.096 157.806 100.461 159.507 99.3483 161.173C98.1804 162.945 97.6858 164.506 97.9606 165.593C98.3865 167.207 100.502 167.821 104.089 167.347L105.202 167.207C105.533 167.163 105.873 167.118 106.221 167.072C110.581 166.493 116.189 165.749 120.947 164.839Z" fill="#3B82F6"/>
<path fill-rule="evenodd" clip-rule="evenodd" d="M106.998 45.8221C106.884 44.504 108.437 42.9553 111.598 41.1925C113.677 40.0392 116.155 40.4017 117.878 42.1316C119.245 43.499 120.726 45.4431 119.986 47.0577C119.416 48.3098 117.607 48.9689 115.201 48.9689C113.592 48.9689 111.712 48.6723 109.747 48.0627C107.967 47.519 107.069 46.7776 106.998 45.8221ZM109.861 47.5849C114.403 49.0018 118.775 48.6558 119.615 46.8271C120.085 45.7726 119.402 44.2898 117.607 42.5105C116.611 41.5385 115.372 41.0277 114.118 41.0277C113.321 41.0277 112.524 41.2254 111.783 41.6373C108.892 43.2519 107.34 44.7182 107.425 45.7726C107.482 46.4811 108.323 47.1071 109.861 47.5849Z" fill="#3B82F6"/>
<path d="M150.445 237.806C143.259 236.667 139.038 229.04 133.714 219.376C132.224 216.684 130.679 213.888 128.941 210.989C124.583 203.724 119.7 199.358 114.444 198.012C108.472 196.493 101.906 198.84 94.9405 204.984C87.2851 211.731 76.209 222.586 66.7054 232.664C64.0432 235.494 60.5673 239.256 57.1603 243.156H57.7672C60.4707 240.084 63.5467 236.702 66.9674 233.06C76.4573 223 87.5196 212.145 95.1612 205.415C108.141 193.974 119.396 195.958 128.596 211.317C130.321 214.199 131.865 216.994 133.355 219.686C138.748 229.454 143.011 237.15 150.376 238.324C155.604 239.152 158.597 240.774 159.314 243.156H159.756C159.08 240.481 155.949 238.686 150.445 237.806Z" fill="#3B82F6"/>
<path d="M110.973 217.967C108.421 216.499 105.803 216.676 103.184 218.48C96.6904 222.936 90.8047 228.207 85.6884 234.167C82.543 237.828 80.1672 241.188 78.4122 244H78.9522C82.948 237.686 90.6697 227.659 103.359 218.94C105.87 217.224 108.367 217.047 110.797 218.444C115.698 221.256 119.531 229.922 121.88 236.714C122.785 239.296 123.541 241.825 124.148 244H124.58C123.959 241.772 123.19 239.172 122.258 236.501C118.802 226.509 114.996 220.266 110.973 217.967Z" fill="#3B82F6"/>
<path fill-rule="evenodd" clip-rule="evenodd" d="M46.4518 182.244C45.9422 180.99 46.0296 179.178 47.4565 178.168C49.5969 176.653 52.5236 177.35 53.6739 178.534C54.169 179.039 54.3437 179.631 54.1544 180.189C53.7758 181.373 52.3198 182.592 49.8444 183.794C49.4804 183.968 49.1164 184.055 48.7815 184.055C47.704 184.055 46.8595 183.219 46.4518 182.244ZM49.6697 183.306C51.9994 182.174 53.4118 181.025 53.7467 179.997C53.8923 179.562 53.6302 179.161 53.3681 178.935C52.7566 178.308 51.548 177.837 50.2667 177.837C49.3785 177.837 48.4612 178.064 47.6603 178.621C46.4664 179.457 46.379 180.92 46.8304 182C47.2818 183.08 48.3592 183.951 49.6697 183.306Z" fill="#3B82F6"/>
<path fill-rule="evenodd" clip-rule="evenodd" d="M68.8292 225.585C68.2901 227.263 62.444 230.924 60.5091 231.89C60.0945 232.093 59.6937 232.195 59.3205 232.178C58.1319 232.178 57.2059 231.246 56.7498 230.127C56.1694 228.704 56.2799 226.653 57.8555 225.518C60.6196 223.518 67.2674 223.196 68.5942 224.586C68.8706 224.857 68.9535 225.213 68.8292 225.585ZM58.0628 225.958C56.7084 226.941 56.6116 228.653 57.123 229.907C57.6344 231.161 58.8506 232.178 60.3432 231.415C62.7895 230.178 67.9999 226.721 68.4283 225.399C68.4698 225.28 68.4836 225.145 68.3178 224.975C67.1292 223.738 60.592 224.128 58.0628 225.958Z" fill="#3B82F6"/>
<path d="M11.6394 12.107C13.9558 10.2872 13.198 4.50016 12.4258 0.844299H11.9826C12.1827 1.76236 12.3686 2.82797 12.5259 3.94276C12.8977 6.77892 13.0121 10.4348 11.4106 11.7135C9.52313 13.189 5.691 11.2545 0 5.95922V6.5822C4.38979 10.6315 7.72145 12.6644 9.9521 12.6644C10.6098 12.6644 11.1675 12.4676 11.6394 12.107Z" fill="#3B82F6"/>
<path fill-rule="evenodd" clip-rule="evenodd" d="M92.7686 127.488C90.772 127.488 88.6395 127.242 87.1183 126.537C84.9451 125.553 84.8228 124.044 85.1352 122.961C85.4476 121.797 86.086 120.944 87.0504 120.435C88.7753 119.533 91.4919 119.747 95.1184 121.091C97.7942 122.092 100.008 123.355 100.035 123.371C101.176 124.06 101.217 124.716 101.068 125.143C100.619 126.373 97.7942 127.094 95.3086 127.357C94.5344 127.439 93.6651 127.488 92.7686 127.488ZM87.1998 120.895C86.3441 121.337 85.7736 122.092 85.5019 123.125C85.1624 124.388 85.7464 125.389 87.2677 126.094C89.0606 126.914 92.1302 127.209 95.2678 126.881C98.1609 126.569 100.388 125.782 100.687 124.962C100.837 124.536 100.307 124.109 99.8451 123.83C99.7093 123.748 93.8145 120.403 89.5767 120.403C88.6938 120.403 87.8789 120.534 87.1998 120.895Z" fill="#3B82F6"/>
</g>
</svg>
